<svg width="195" height="48" viewBox="0 0 195 48" fill="none" xmlns="http://www.w3.org/2000/svg">
<rect width="195" height="48" fill="white"/>
<mask id="path-1-outside-1_84_2" maskUnits="userSpaceOnUse" x="13.5" y="12" width="168" height="26" fill="black">
<rect fill="white" x="13.5" y="12" width="168" height="26"/>
<path d="M18.8848 36L18.5648 33.44L22.2448 32.736V17.248H18.6288L17.2528 20.448H14.7888L15.3968 13.888H33.1568L33.8608 20.416H31.4288L30.0208 17.248H26.3728V32.736L30.0848 33.44L29.7648 36H18.8848ZM35.8523 36L35.4043 33.184L37.4843 32.768V16.96L35.4683 16.736V13.888H50.0603L50.6683 20.416H48.1723L46.8603 17.248H41.6763V22.944H46.5403V26.304H41.6763V32.64H47.0843L48.2683 29.472H50.7963L50.1243 36H35.8523ZM63.5863 36.128C62.1569 36.128 60.7916 35.904 59.4903 35.456C58.1889 35.008 57.0369 34.336 56.0343 33.44C55.0316 32.5227 54.2423 31.392 53.6663 30.048C53.0903 28.6827 52.8023 27.104 52.8023 25.312C52.8023 23.4347 53.1009 21.792 53.6983 20.384C54.2956 18.9547 55.0956 17.76 56.0983 16.8C57.1223 15.84 58.2636 15.1147 59.5223 14.624C60.7809 14.1333 62.0609 13.888 63.3623 13.888C64.7916 13.888 65.9649 13.9947 66.8823 14.208C67.7996 14.4 68.4289 14.5493 68.7703 14.656L69.4103 21.28H66.8183L64.9303 17.312C64.7809 17.2907 64.6209 17.28 64.4503 17.28C64.2796 17.2587 64.0236 17.248 63.6823 17.248C62.5089 17.248 61.4209 17.5573 60.4183 18.176C59.4369 18.7947 58.6476 19.6693 58.0503 20.8C57.4529 21.9307 57.1329 23.2853 57.0903 24.864C57.1116 26.4 57.3996 27.7653 57.9543 28.96C58.5089 30.1333 59.2769 31.0613 60.2583 31.744C61.2609 32.4267 62.4236 32.768 63.7463 32.768C64.6209 32.768 65.4956 32.608 66.3703 32.288C67.2663 31.968 68.0129 31.4987 68.6103 30.88L69.9543 33.728C69.5703 34.176 69.0369 34.5813 68.3542 34.944C67.6929 35.3067 66.9463 35.5947 66.1143 35.808C65.2823 36.0213 64.4396 36.128 63.5863 36.128ZM72.4475 36L71.9675 33.152L74.0475 32.736V17.024L72.0315 16.8V13.888H79.8395L80.3195 16.864L78.2395 17.248V22.976H85.4395V17.024L83.6475 16.8V13.888H91.5515L92.0315 16.864L89.6315 17.248V32.832L91.9675 33.216L91.9355 36H84.0635L83.5835 33.152L85.4395 32.736V26.336H78.2395V32.832L80.2555 33.216L80.2875 36H72.4475ZM102.348 36L101.74 33.472L112.524 17.248H105.452L104.844 20.768H102.348V13.888H117.068L117.708 16.864L107.404 32.64H114.284L114.86 29.12H117.42V36H102.348ZM129.309 36.128C127.794 36.128 126.45 35.8613 125.277 35.328C124.125 34.7733 123.154 33.9947 122.365 32.992C121.575 31.9893 120.978 30.8053 120.573 29.44C120.167 28.0747 119.965 26.5813 119.965 24.96C119.965 23.3173 120.167 21.824 120.573 20.48C120.978 19.1147 121.575 17.9413 122.365 16.96C123.154 15.9573 124.125 15.1893 125.277 14.656C126.45 14.1013 127.794 13.824 129.309 13.824C130.823 13.824 132.157 14.1013 133.309 14.656C134.461 15.1893 135.431 15.9573 136.221 16.96C137.01 17.9413 137.607 19.1147 138.013 20.48C138.418 21.824 138.621 23.3173 138.621 24.96C138.621 26.5813 138.418 28.0747 138.013 29.44C137.607 30.8053 137.01 31.9893 136.221 32.992C135.431 33.9947 134.461 34.7733 133.309 35.328C132.157 35.8613 130.823 36.128 129.309 36.128ZM129.309 32.768C130.055 32.768 130.727 32.576 131.325 32.192C131.943 31.7867 132.466 31.232 132.893 30.528C133.319 29.824 133.65 29.0027 133.885 28.064C134.119 27.1253 134.237 26.112 134.237 25.024C134.237 23.936 134.119 22.9227 133.885 21.984C133.65 21.024 133.319 20.192 132.893 19.488C132.466 18.7627 131.943 18.1973 131.325 17.792C130.727 17.3867 130.055 17.184 129.309 17.184C128.541 17.184 127.847 17.3867 127.229 17.792C126.631 18.1973 126.119 18.7627 125.693 19.488C125.266 20.192 124.935 21.024 124.701 21.984C124.466 22.9227 124.349 23.936 124.349 25.024C124.349 26.112 124.466 27.1253 124.701 28.064C124.935 29.0027 125.266 29.824 125.693 30.528C126.119 31.232 126.631 31.7867 127.229 32.192C127.847 32.576 128.541 32.768 129.309 32.768ZM141.227 36L140.715 33.216L142.923 32.8V17.088L140.875 16.864V13.888H149.067L156.331 32.928V17.024L154.475 16.8V13.888H161.355L161.835 16.864L159.691 17.248V36H153.227L146.283 17.984V32.672L147.915 33.184L147.883 36H141.227ZM164.477 36L164.029 33.184L166.109 32.768V16.96L164.093 16.736V13.888H178.685L179.293 20.416H176.797L175.485 17.248H170.301V22.944H175.165V26.304H170.301V32.64H175.709L176.893 29.472H179.421L178.749 36H164.477Z"/>
</mask>
<path d="M18.8848 36L17.8925 36.124L18.002 37H18.8848V36ZM18.5648 33.44L18.3769 32.4578L17.4562 32.6339L17.5725 33.564L18.5648 33.44ZM22.2448 32.736L22.4326 33.7182L23.2448 33.5628V32.736H22.2448ZM22.2448 17.248H23.2448V16.248H22.2448V17.248ZM18.6288 17.248V16.248H17.9702L17.7101 16.853L18.6288 17.248ZM17.2528 20.448V21.448H17.9113L18.1714 20.843L17.2528 20.448ZM14.7888 20.448L13.793 20.3557L13.6918 21.448H14.7888V20.448ZM15.3968 13.888V12.888H14.4851L14.401 13.7957L15.3968 13.888ZM33.1568 13.888L34.151 13.7808L34.0547 12.888H33.1568V13.888ZM33.8608 20.416V21.416H34.9744L34.855 20.3088L33.8608 20.416ZM31.4288 20.416L30.5149 20.8221L30.7789 21.416H31.4288V20.416ZM30.0208 17.248L30.9346 16.8419L30.6706 16.248H30.0208V17.248ZM26.3728 17.248V16.248H25.3728V17.248H26.3728ZM26.3728 32.736H25.3728V33.5642L26.1864 33.7185L26.3728 32.736ZM30.0848 33.44L31.077 33.564L31.1935 32.6324L30.2711 32.4575L30.0848 33.44ZM29.7648 36V37H30.6475L30.757 36.124L29.7648 36ZM18.8848 36L19.877 35.876L19.557 33.316L18.5648 33.44L17.5725 33.564L17.8925 36.124L18.8848 36ZM18.5648 33.44L18.7526 34.4222L22.4326 33.7182L22.2448 32.736L22.0569 31.7538L18.3769 32.4578L18.5648 33.44ZM22.2448 32.736H23.2448V17.248H22.2448H21.2448V32.736H22.2448ZM22.2448 17.248V16.248H18.6288V17.248V18.248H22.2448V17.248ZM18.6288 17.248L17.7101 16.853L16.3341 20.053L17.2528 20.448L18.1714 20.843L19.5474 17.643L18.6288 17.248ZM17.2528 20.448V19.448H14.7888V20.448V21.448H17.2528V20.448ZM14.7888 20.448L15.7845 20.5403L16.3925 13.9803L15.3968 13.888L14.401 13.7957L13.793 20.3557L14.7888 20.448ZM15.3968 13.888V14.888H33.1568V13.888V12.888H15.3968V13.888ZM33.1568 13.888L32.1625 13.9952L32.8665 20.5232L33.8608 20.416L34.855 20.3088L34.151 13.7808L33.1568 13.888ZM33.8608 20.416V19.416H31.4288V20.416V21.416H33.8608V20.416ZM31.4288 20.416L32.3426 20.0099L30.9346 16.8419L30.0208 17.248L29.1069 17.6541L30.5149 20.8221L31.4288 20.416ZM30.0208 17.248V16.248H26.3728V17.248V18.248H30.0208V17.248ZM26.3728 17.248H25.3728V32.736H26.3728H27.3728V17.248H26.3728ZM26.3728 32.736L26.1864 33.7185L29.8984 34.4225L30.0848 33.44L30.2711 32.4575L26.5591 31.7535L26.3728 32.736ZM30.0848 33.44L29.0925 33.316L28.7725 35.876L29.7648 36L30.757 36.124L31.077 33.564L30.0848 33.44ZM29.7648 36V35H18.8848V36V37H29.7648V36ZM35.8523 36L34.8647 36.1571L34.9988 37H35.8523V36ZM35.4043 33.184L35.2081 32.2034L34.2657 32.3919L34.4167 33.3411L35.4043 33.184ZM37.4843 32.768L37.6804 33.7486L38.4843 33.5878V32.768H37.4843ZM37.4843 16.96H38.4843V16.065L37.5947 15.9661L37.4843 16.96ZM35.4683 16.736H34.4683V17.631L35.3578 17.7299L35.4683 16.736ZM35.4683 13.888V12.888H34.4683V13.888H35.4683ZM50.0603 13.888L51.0559 13.7953L50.9714 12.888H50.0603V13.888ZM50.6683 20.416V21.416H51.7657L51.6639 20.3233L50.6683 20.416ZM48.1723 20.416L47.2483 20.7986L47.504 21.416H48.1723V20.416ZM46.8603 17.248L47.7842 16.8654L47.5285 16.248H46.8603V17.248ZM41.6763 17.248V16.248H40.6763V17.248H41.6763ZM41.6763 22.944H40.6763V23.944H41.6763V22.944ZM46.5403 22.944H47.5403V21.944H46.5403V22.944ZM46.5403 26.304V27.304H47.5403V26.304H46.5403ZM41.6763 26.304V25.304H40.6763V26.304H41.6763ZM41.6763 32.64H40.6763V33.64H41.6763V32.64ZM47.0843 32.64V33.64H47.7781L48.021 32.9901L47.0843 32.64ZM48.2683 29.472V28.472H47.5744L47.3315 29.1219L48.2683 29.472ZM50.7963 29.472L51.791 29.5744L51.9045 28.472H50.7963V29.472ZM50.1243 36V37H51.0266L51.119 36.1024L50.1243 36ZM35.8523 36L36.8398 35.8429L36.3918 33.0269L35.4043 33.184L34.4167 33.3411L34.8647 36.1571L35.8523 36ZM35.4043 33.184L35.6004 34.1646L37.6804 33.7486L37.4843 32.768L37.2881 31.7874L35.2081 32.2034L35.4043 33.184ZM37.4843 32.768H38.4843V16.96H37.4843H36.4843V32.768H37.4843ZM37.4843 16.96L37.5947 15.9661L35.5787 15.7421L35.4683 16.736L35.3578 17.7299L37.3738 17.9539L37.4843 16.96ZM35.4683 16.736H36.4683V13.888H35.4683H34.4683V16.736H35.4683ZM35.4683 13.888V14.888H50.0603V13.888V12.888H35.4683V13.888ZM50.0603 13.888L49.0646 13.9807L49.6726 20.5087L50.6683 20.416L51.6639 20.3233L51.0559 13.7953L50.0603 13.888ZM50.6683 20.416V19.416H48.1723V20.416V21.416H50.6683V20.416ZM48.1723 20.416L49.0962 20.0334L47.7842 16.8654L46.8603 17.248L45.9363 17.6306L47.2483 20.7986L48.1723 20.416ZM46.8603 17.248V16.248H41.6763V17.248V18.248H46.8603V17.248ZM41.6763 17.248H40.6763V22.944H41.6763H42.6763V17.248H41.6763ZM41.6763 22.944V23.944H46.5403V22.944V21.944H41.6763V22.944ZM46.5403 22.944H45.5403V26.304H46.5403H47.5403V22.944H46.5403ZM46.5403 26.304V25.304H41.6763V26.304V27.304H46.5403V26.304ZM41.6763 26.304H40.6763V32.64H41.6763H42.6763V26.304H41.6763ZM41.6763 32.64V33.64H47.0843V32.64V31.64H41.6763V32.64ZM47.0843 32.64L48.021 32.9901L49.205 29.8221L48.2683 29.472L47.3315 29.1219L46.1475 32.2899L47.0843 32.64ZM48.2683 29.472V30.472H50.7963V29.472V28.472H48.2683V29.472ZM50.7963 29.472L49.8015 29.3696L49.1295 35.8976L50.1243 36L51.119 36.1024L51.791 29.5744L50.7963 29.472ZM50.1243 36V35H35.8523V36V37H50.1243V36ZM59.4903 35.456L59.8158 34.5105L59.8158 34.5105L59.4903 35.456ZM56.0343 33.44L55.3592 34.1779L55.3679 34.1857L56.0343 33.44ZM53.6663 30.048L52.7449 30.4367L52.7471 30.4419L53.6663 30.048ZM53.6983 20.384L54.6188 20.7746L54.6209 20.7696L53.6983 20.384ZM56.0983 16.8L55.4143 16.0704L55.4067 16.0777L56.0983 16.8ZM59.5223 14.624L59.159 13.6923L59.159 13.6923L59.5223 14.624ZM66.8823 14.208L66.6557 15.182L66.6665 15.1845L66.6774 15.1868L66.8823 14.208ZM68.7703 14.656L69.7656 14.5598L69.7018 13.8994L69.0685 13.7015L68.7703 14.656ZM69.4103 21.28V22.28H70.5115L70.4056 21.1838L69.4103 21.28ZM66.8183 21.28L65.9153 21.7097L66.1866 22.28H66.8183V21.28ZM64.9303 17.312L65.8332 16.8823L65.6027 16.3979L65.0717 16.322L64.9303 17.312ZM64.4503 17.28L64.3262 18.2723L64.388 18.28H64.4503V17.28ZM60.4183 18.176L59.8931 17.3249L59.8849 17.3301L60.4183 18.176ZM58.0503 20.8L57.1661 20.3329L57.1661 20.3329L58.0503 20.8ZM57.0903 24.864L56.0906 24.837L56.0901 24.8574L56.0903 24.8779L57.0903 24.864ZM57.9543 28.96L57.0472 29.3811L57.0502 29.3874L57.9543 28.96ZM60.2583 31.744L59.6872 32.5649L59.6955 32.5706L60.2583 31.744ZM66.3703 32.288L66.0339 31.3462L66.0267 31.3489L66.3703 32.288ZM68.6103 30.88L69.5146 30.4532L68.8966 29.1437L67.8908 30.1854L68.6103 30.88ZM69.9543 33.728L70.7135 34.3788L71.135 33.887L70.8586 33.3012L69.9543 33.728ZM68.3542 34.944L67.8851 34.0608L67.8734 34.0672L68.3542 34.944ZM66.1143 35.808L66.3626 36.7767L66.3626 36.7767L66.1143 35.808ZM63.5863 36.128V35.128C62.2634 35.128 61.0084 34.921 59.8158 34.5105L59.4903 35.456L59.1647 36.4015C60.5748 36.887 62.0505 37.128 63.5863 37.128V36.128ZM59.4903 35.456L59.8158 34.5105C58.6372 34.1047 57.6017 33.4996 56.7006 32.6943L56.0343 33.44L55.3679 34.1857C56.4721 35.1724 57.7407 35.9113 59.1647 36.4015L59.4903 35.456ZM56.0343 33.44L56.7093 32.7022C55.8193 31.888 55.1097 30.8775 54.5854 29.6541L53.6663 30.048L52.7471 30.4419C53.3748 31.9065 54.2439 33.1574 55.3592 34.1778L56.0343 33.44ZM53.6663 30.048L54.5876 29.6593C54.0732 28.4399 53.8023 26.9978 53.8023 25.312H52.8023H51.8023C51.8023 27.2102 52.1073 28.9255 52.7449 30.4367L53.6663 30.048ZM52.8023 25.312H53.8023C53.8023 23.5392 54.0844 22.0343 54.6188 20.7745L53.6983 20.384L52.7777 19.9934C52.1175 21.5497 51.8023 23.3302 51.8023 25.312H52.8023ZM53.6983 20.384L54.6209 20.7696C55.1714 19.4524 55.8975 18.3767 56.7898 17.5223L56.0983 16.8L55.4067 16.0777C54.2937 17.1433 53.4198 18.4569 52.7756 19.9984L53.6983 20.384ZM56.0983 16.8L56.7822 17.5295C57.7168 16.6533 58.7502 15.9982 59.8855 15.5557L59.5223 14.624L59.159 13.6923C57.7769 14.2311 56.5277 15.0267 55.4143 16.0705L56.0983 16.8ZM59.5223 14.624L59.8855 15.5557C61.0328 15.1084 62.1899 14.888 63.3623 14.888V13.888V12.888C61.9319 12.888 60.529 13.1582 59.159 13.6923L59.5223 14.624ZM63.3623 13.888V14.888C64.7502 14.888 65.8403 14.9924 66.6557 15.182L66.8823 14.208L67.1088 13.234C66.0895 12.997 64.8329 12.888 63.3623 12.888V13.888ZM66.8823 14.208L66.6774 15.1868C67.5978 15.3794 68.1828 15.5201 68.472 15.6105L68.7703 14.656L69.0685 13.7015C68.6751 13.5786 68.0014 13.4206 67.0871 13.2292L66.8823 14.208ZM68.7703 14.656L67.7749 14.7522L68.4149 21.3762L69.4103 21.28L70.4056 21.1838L69.7656 14.5598L68.7703 14.656ZM69.4103 21.28V20.28H66.8183V21.28V22.28H69.4103V21.28ZM66.8183 21.28L67.7212 20.8503L65.8332 16.8823L64.9303 17.312L64.0273 17.7416L65.9153 21.7097L66.8183 21.28ZM64.9303 17.312L65.0717 16.322C64.8699 16.2932 64.6622 16.28 64.4503 16.28V17.28V18.28C64.5796 18.28 64.692 18.2881 64.7888 18.3019L64.9303 17.312ZM64.4503 17.28L64.5743 16.2877C64.3397 16.2584 64.0331 16.248 63.6823 16.248V17.248V18.248C64.0141 18.248 64.2194 18.2589 64.3262 18.2723L64.4503 17.28ZM63.6823 17.248V16.248C62.3226 16.248 61.053 16.6093 59.8931 17.325L60.4183 18.176L60.9434 19.027C61.7889 18.5053 62.6952 18.248 63.6823 18.248V17.248ZM60.4183 18.176L59.8849 17.3301C58.7407 18.0515 57.8366 19.0637 57.1661 20.3329L58.0503 20.8L58.9344 21.2671C59.4586 20.275 60.1331 19.5379 60.9516 19.0219L60.4183 18.176ZM58.0503 20.8L57.1661 20.3329C56.4821 21.6276 56.1365 23.1401 56.0906 24.837L57.0903 24.864L58.0899 24.891C58.1294 23.4306 58.4238 22.2337 58.9344 21.2671L58.0503 20.8ZM57.0903 24.864L56.0903 24.8779C56.1133 26.5315 56.4242 28.0393 57.0472 29.3811L57.9543 28.96L58.8613 28.5389C58.3749 27.4914 58.1099 26.2685 58.0902 24.8501L57.0903 24.864ZM57.9543 28.96L57.0502 29.3874C57.673 30.7048 58.5502 31.774 59.6872 32.5649L60.2583 31.744L60.8293 30.9231C60.0036 30.3487 59.3449 29.5619 58.8583 28.5326L57.9543 28.96ZM60.2583 31.744L59.6955 32.5706C60.8791 33.3765 62.2418 33.768 63.7463 33.768V32.768V31.768C62.6053 31.768 61.6427 31.4769 60.821 30.9174L60.2583 31.744ZM63.7463 32.768V33.768C64.7455 33.768 65.7363 33.5848 66.7138 33.2271L66.3703 32.288L66.0267 31.3489C65.2549 31.6312 64.4963 31.768 63.7463 31.768V32.768ZM66.3703 32.288L66.7066 33.2297C67.732 32.8635 68.6144 32.3154 69.3297 31.5746L68.6103 30.88L67.8908 30.1854C67.4114 30.6819 66.8005 31.0725 66.0339 31.3463L66.3703 32.288ZM68.6103 30.88L67.7059 31.3068L69.0499 34.1548L69.9543 33.728L70.8586 33.3012L69.5146 30.4532L68.6103 30.88ZM69.9543 33.728L69.195 33.0772C68.9132 33.4059 68.4898 33.7396 67.8851 34.0609L68.3542 34.944L68.8234 35.8271C69.584 35.4231 70.2273 34.9461 70.7135 34.3788L69.9543 33.728ZM68.3542 34.944L67.8734 34.0672C67.2947 34.3845 66.6278 34.644 65.8659 34.8393L66.1143 35.808L66.3626 36.7767C67.2647 36.5454 68.0911 36.2288 68.8351 35.8208L68.3542 34.944ZM66.1143 35.808L65.8659 34.8393C65.1145 35.032 64.3553 35.128 63.5863 35.128V36.128V37.128C64.5239 37.128 65.45 37.0107 66.3626 36.7767L66.1143 35.808ZM72.4475 36L71.4614 36.1662L71.6019 37H72.4475V36ZM71.9675 33.152L71.7714 32.1714L70.8202 32.3617L70.9814 33.3182L71.9675 33.152ZM74.0475 32.736L74.2436 33.7166L75.0475 33.5558V32.736H74.0475ZM74.0475 17.024H75.0475V16.129L74.1579 16.0301L74.0475 17.024ZM72.0315 16.8H71.0315V17.695L71.9211 17.7939L72.0315 16.8ZM72.0315 13.888V12.888H71.0315V13.888H72.0315ZM79.8395 13.888L80.8267 13.7288L80.6911 12.888H79.8395V13.888ZM80.3195 16.864L80.501 17.8474L81.4624 17.6699L81.3067 16.7048L80.3195 16.864ZM78.2395 17.248L78.058 16.2646L77.2395 16.4157V17.248H78.2395ZM78.2395 22.976H77.2395V23.976H78.2395V22.976ZM85.4395 22.976V23.976H86.4395V22.976H85.4395ZM85.4395 17.024H86.4395V16.1412L85.5635 16.0317L85.4395 17.024ZM83.6475 16.8H82.6475V17.6828L83.5235 17.7923L83.6475 16.8ZM83.6475 13.888V12.888H82.6475V13.888H83.6475ZM91.5515 13.888L92.5387 13.7288L92.4031 12.888H91.5515V13.888ZM92.0315 16.864L92.1895 17.8514L93.1782 17.6932L93.0187 16.7048L92.0315 16.864ZM89.6315 17.248L89.4735 16.2606L88.6315 16.3953V17.248H89.6315ZM89.6315 32.832H88.6315V33.681L89.4693 33.8188L89.6315 32.832ZM91.9675 33.216L92.9674 33.2275L92.9773 32.3686L92.1297 32.2292L91.9675 33.216ZM91.9355 36V37H92.9241L92.9354 36.0115L91.9355 36ZM84.0635 36L83.0774 36.1662L83.2179 37H84.0635V36ZM83.5835 33.152L83.3648 32.1762L82.4399 32.3835L82.5974 33.3182L83.5835 33.152ZM85.4395 32.736L85.6582 33.7118L86.4395 33.5367V32.736H85.4395ZM85.4395 26.336H86.4395V25.336H85.4395V26.336ZM78.2395 26.336V25.336H77.2395V26.336H78.2395ZM78.2395 32.832H77.2395V33.6595L78.0524 33.8143L78.2395 32.832ZM80.2555 33.216L81.2554 33.2045L81.246 32.3867L80.4426 32.2337L80.2555 33.216ZM80.2875 36V37H81.2991L81.2874 35.9885L80.2875 36ZM72.4475 36L73.4336 35.8338L72.9536 32.9858L71.9675 33.152L70.9814 33.3182L71.4614 36.1662L72.4475 36ZM71.9675 33.152L72.1636 34.1326L74.2436 33.7166L74.0475 32.736L73.8514 31.7554L71.7714 32.1714L71.9675 33.152ZM74.0475 32.736H75.0475V17.024H74.0475H73.0475V32.736H74.0475ZM74.0475 17.024L74.1579 16.0301L72.1419 15.8061L72.0315 16.8L71.9211 17.7939L73.9371 18.0179L74.0475 17.024ZM72.0315 16.8H73.0315V13.888H72.0315H71.0315V16.8H72.0315ZM72.0315 13.888V14.888H79.8395V13.888V12.888H72.0315V13.888ZM79.8395 13.888L78.8523 14.0472L79.3323 17.0232L80.3195 16.864L81.3067 16.7048L80.8267 13.7288L79.8395 13.888ZM80.3195 16.864L80.138 15.8806L78.058 16.2646L78.2395 17.248L78.421 18.2314L80.501 17.8474L80.3195 16.864ZM78.2395 17.248H77.2395V22.976H78.2395H79.2395V17.248H78.2395ZM78.2395 22.976V23.976H85.4395V22.976V21.976H78.2395V22.976ZM85.4395 22.976H86.4395V17.024H85.4395H84.4395V22.976H85.4395ZM85.4395 17.024L85.5635 16.0317L83.7715 15.8077L83.6475 16.8L83.5235 17.7923L85.3155 18.0163L85.4395 17.024ZM83.6475 16.8H84.6475V13.888H83.6475H82.6475V16.8H83.6475ZM83.6475 13.888V14.888H91.5515V13.888V12.888H83.6475V13.888ZM91.5515 13.888L90.5643 14.0472L91.0443 17.0232L92.0315 16.864L93.0187 16.7048L92.5387 13.7288L91.5515 13.888ZM92.0315 16.864L91.8735 15.8766L89.4735 16.2606L89.6315 17.248L89.7895 18.2354L92.1895 17.8514L92.0315 16.864ZM89.6315 17.248H88.6315V32.832H89.6315H90.6315V17.248H89.6315ZM89.6315 32.832L89.4693 33.8188L91.8053 34.2028L91.9675 33.216L92.1297 32.2292L89.7937 31.8452L89.6315 32.832ZM91.9675 33.216L90.9676 33.2045L90.9356 35.9885L91.9355 36L92.9354 36.0115L92.9674 33.2275L91.9675 33.216ZM91.9355 36V35H84.0635V36V37H91.9355V36ZM84.0635 36L85.0496 35.8338L84.5696 32.9858L83.5835 33.152L82.5974 33.3182L83.0774 36.1662L84.0635 36ZM83.5835 33.152L83.8022 34.1278L85.6582 33.7118L85.4395 32.736L85.2208 31.7602L83.3648 32.1762L83.5835 33.152ZM85.4395 32.736H86.4395V26.336H85.4395H84.4395V32.736H85.4395ZM85.4395 26.336V25.336H78.2395V26.336V27.336H85.4395V26.336ZM78.2395 26.336H77.2395V32.832H78.2395H79.2395V26.336H78.2395ZM78.2395 32.832L78.0524 33.8143L80.0684 34.1983L80.2555 33.216L80.4426 32.2337L78.4266 31.8497L78.2395 32.832ZM80.2555 33.216L79.2556 33.2275L79.2876 36.0115L80.2875 36L81.2874 35.9885L81.2554 33.2045L80.2555 33.216ZM80.2875 36V35H72.4475V36V37H80.2875V36ZM102.348 36L101.375 36.2338L101.56 37H102.348V36ZM101.74 33.472L100.907 32.9184L100.665 33.2817L100.767 33.7058L101.74 33.472ZM112.524 17.248L113.357 17.8016L114.389 16.248H112.524V17.248ZM105.452 17.248V16.248H104.61L104.466 17.0778L105.452 17.248ZM104.844 20.768V21.768H105.686L105.829 20.9382L104.844 20.768ZM102.348 20.768H101.348V21.768H102.348V20.768ZM102.348 13.888V12.888H101.348V13.888H102.348ZM117.068 13.888L118.045 13.6778L117.876 12.888H117.068V13.888ZM117.708 16.864L118.545 17.4108L118.773 17.0616L118.685 16.6538L117.708 16.864ZM107.404 32.64L106.567 32.0932L105.556 33.64H107.404V32.64ZM114.284 32.64V33.64H115.133L115.271 32.8015L114.284 32.64ZM114.86 29.12V28.12H114.01L113.873 28.9585L114.86 29.12ZM117.42 29.12H118.42V28.12H117.42V29.12ZM117.42 36V37H118.42V36H117.42ZM102.348 36L103.32 35.7662L102.712 33.2382L101.74 33.472L100.767 33.7058L101.375 36.2338L102.348 36ZM101.74 33.472L102.573 34.0256L113.357 17.8016L112.524 17.248L111.691 16.6944L100.907 32.9184L101.74 33.472ZM112.524 17.248V16.248H105.452V17.248V18.248H112.524V17.248ZM105.452 17.248L104.466 17.0778L103.858 20.5978L104.844 20.768L105.829 20.9382L106.437 17.4182L105.452 17.248ZM104.844 20.768V19.768H102.348V20.768V21.768H104.844V20.768ZM102.348 20.768H103.348V13.888H102.348H101.348V20.768H102.348ZM102.348 13.888V14.888H117.068V13.888V12.888H102.348V13.888ZM117.068 13.888L116.09 14.0982L116.73 17.0742L117.708 16.864L118.685 16.6538L118.045 13.6778L117.068 13.888ZM117.708 16.864L116.871 16.3172L106.567 32.0932L107.404 32.64L108.241 33.1868L118.545 17.4108L117.708 16.864ZM107.404 32.64V33.64H114.284V32.64V31.64H107.404V32.64ZM114.284 32.64L115.271 32.8015L115.847 29.2815L114.86 29.12L113.873 28.9585L113.297 32.4785L114.284 32.64ZM114.86 29.12V30.12H117.42V29.12V28.12H114.86V29.12ZM117.42 29.12H116.42V36H117.42H118.42V29.12H117.42ZM117.42 36V35H102.348V36V37H117.42V36ZM125.277 35.328L124.843 36.229L124.853 36.2338L124.863 36.2384L125.277 35.328ZM122.365 32.992L123.15 32.3734L123.15 32.3734L122.365 32.992ZM120.573 29.44L121.531 29.1554L121.531 29.1554L120.573 29.44ZM120.573 20.48L121.53 20.7687L121.531 20.7646L120.573 20.48ZM122.365 16.96L123.144 17.5868L123.15 17.5786L122.365 16.96ZM125.277 14.656L125.697 15.5635L125.704 15.5601L125.277 14.656ZM133.309 14.656L132.875 15.557L132.882 15.5603L132.888 15.5635L133.309 14.656ZM136.221 16.96L135.435 17.5786L135.441 17.5868L136.221 16.96ZM138.013 20.48L137.054 20.7646L137.055 20.7687L138.013 20.48ZM136.221 32.992L135.435 32.3734L135.435 32.3734L136.221 32.992ZM133.309 35.328L133.729 36.2355L133.735 36.2323L133.742 36.229L133.309 35.328ZM131.325 32.192L131.865 33.0332L131.873 33.0285L131.325 32.192ZM132.893 30.528L133.748 31.0463L133.748 31.0463L132.893 30.528ZM133.885 28.064L134.855 28.3065L134.855 28.3065L133.885 28.064ZM133.885 21.984L132.913 22.2215L132.914 22.2265L133.885 21.984ZM132.893 19.488L132.03 19.9951L132.037 20.0063L132.893 19.488ZM131.325 17.792L130.763 18.6195L130.77 18.624L130.776 18.6285L131.325 17.792ZM127.229 17.792L126.68 16.9555L126.674 16.96L126.667 16.9645L127.229 17.792ZM125.693 19.488L126.548 20.0063L126.554 19.995L125.693 19.488ZM124.701 21.984L125.671 22.2265L125.672 22.2215L124.701 21.984ZM124.701 28.064L125.671 27.8215L125.671 27.8215L124.701 28.064ZM125.693 30.528L124.837 31.0463L124.837 31.0463L125.693 30.528ZM127.229 32.192L126.667 33.0195L126.684 33.0309L126.701 33.0416L127.229 32.192ZM129.309 36.128V35.128C127.912 35.128 126.713 34.8824 125.69 34.4176L125.277 35.328L124.863 36.2384C126.187 36.8402 127.676 37.128 129.309 37.128V36.128ZM125.277 35.328L125.71 34.427C124.695 33.9383 123.845 33.2561 123.15 32.3734L122.365 32.992L121.579 33.6106C122.463 34.7332 123.554 35.6084 124.843 36.229L125.277 35.328ZM122.365 32.992L123.15 32.3734C122.448 31.4811 121.905 30.4135 121.531 29.1554L120.573 29.44L119.614 29.7246C120.051 31.1971 120.703 32.4976 121.579 33.6106L122.365 32.992ZM120.573 29.44L121.531 29.1554C121.157 27.8942 120.965 26.498 120.965 24.96H119.965H118.965C118.965 26.6646 119.178 28.2551 119.614 29.7246L120.573 29.44ZM119.965 24.96H120.965C120.965 23.3989 121.157 22.0048 121.53 20.7687L120.573 20.48L119.615 20.1913C119.177 21.6432 118.965 23.2357 118.965 24.96H119.965ZM120.573 20.48L121.531 20.7646C121.904 19.5077 122.446 18.4544 123.144 17.5868L122.365 16.96L121.585 16.3332C120.704 17.4283 120.051 18.7217 119.614 20.1954L120.573 20.48ZM122.365 16.96L123.15 17.5786C123.843 16.699 124.688 16.0303 125.697 15.5635L125.277 14.656L124.856 13.7485C123.561 14.3484 122.465 15.2157 121.579 16.3414L122.365 16.96ZM125.277 14.656L125.704 15.5601C126.723 15.0783 127.917 14.824 129.309 14.824V13.824V12.824C127.671 12.824 126.177 13.1244 124.849 13.7519L125.277 14.656ZM129.309 13.824V14.824C130.7 14.824 131.881 15.0785 132.875 15.557L133.309 14.656L133.742 13.755C132.432 13.1242 130.946 12.824 129.309 12.824V13.824ZM133.309 14.656L132.888 15.5635C133.897 16.0303 134.742 16.699 135.435 17.5786L136.221 16.96L137.006 16.3414C136.12 15.2157 135.024 14.3484 133.729 13.7485L133.309 14.656ZM136.221 16.96L135.441 17.5868C136.139 18.4544 136.681 19.5077 137.054 20.7646L138.013 20.48L138.971 20.1954C138.534 18.7217 137.881 17.4283 137 16.3332L136.221 16.96ZM138.013 20.48L137.055 20.7687C137.428 22.0048 137.621 23.3989 137.621 24.96H138.621H139.621C139.621 23.2357 139.408 21.6432 138.97 20.1913L138.013 20.48ZM138.621 24.96H137.621C137.621 26.498 137.428 27.8942 137.054 29.1554L138.013 29.44L138.971 29.7246C139.407 28.2551 139.621 26.6646 139.621 24.96H138.621ZM138.013 29.44L137.054 29.1554C136.68 30.4135 136.137 31.4811 135.435 32.3734L136.221 32.992L137.006 33.6106C137.882 32.4976 138.534 31.1971 138.971 29.7246L138.013 29.44ZM136.221 32.992L135.435 32.3734C134.74 33.2561 133.89 33.9383 132.875 34.427L133.309 35.328L133.742 36.229C135.031 35.6084 136.122 34.7332 137.006 33.6106L136.221 32.992ZM133.309 35.328L132.888 34.4205C131.891 34.8823 130.706 35.128 129.309 35.128V36.128V37.128C130.941 37.128 132.422 36.8404 133.729 36.2355L133.309 35.328ZM129.309 32.768V33.768C130.237 33.768 131.098 33.5263 131.865 33.0332L131.325 32.192L130.784 31.3508C130.356 31.6257 129.874 31.768 129.309 31.768V32.768ZM131.325 32.192L131.873 33.0285C132.63 32.5325 133.252 31.8634 133.748 31.0463L132.893 30.528L132.037 30.0097C131.679 30.6006 131.257 31.0408 130.776 31.3555L131.325 32.192ZM132.893 30.528L133.748 31.0463C134.234 30.2432 134.6 29.3258 134.855 28.3065L133.885 28.064L132.914 27.8215C132.7 28.6795 132.404 29.4048 132.037 30.0097L132.893 30.528ZM133.885 28.064L134.855 28.3065C135.111 27.2794 135.237 26.1838 135.237 25.024H134.237H133.237C133.237 26.0402 133.127 26.9712 132.914 27.8215L133.885 28.064ZM134.237 25.024H135.237C135.237 23.8642 135.111 22.7686 134.855 21.7415L133.885 21.984L132.914 22.2265C133.127 23.0768 133.237 24.0078 133.237 25.024H134.237ZM133.885 21.984L134.856 21.7465C134.602 20.7068 134.237 19.7763 133.748 18.9697L132.893 19.488L132.037 20.0063C132.402 20.6077 132.698 21.3412 132.913 22.2215L133.885 21.984ZM132.893 19.488L133.754 18.981C133.261 18.1415 132.636 17.456 131.873 16.9555L131.325 17.792L130.776 18.6285C131.25 18.9386 131.671 19.3838 132.031 19.995L132.893 19.488ZM131.325 17.792L131.886 16.9645C131.117 16.4427 130.248 16.184 129.309 16.184V17.184V18.184C129.862 18.184 130.337 18.3306 130.763 18.6195L131.325 17.792ZM129.309 17.184V16.184C128.354 16.184 127.468 16.4393 126.68 16.9555L127.229 17.792L127.777 18.6285C128.226 18.3341 128.727 18.184 129.309 18.184V17.184ZM127.229 17.792L126.667 16.9645C125.928 17.4658 125.32 18.1489 124.831 18.981L125.693 19.488L126.554 19.995C126.918 19.3764 127.334 18.9289 127.79 18.6195L127.229 17.792ZM125.693 19.488L124.837 18.9697C124.348 19.7763 123.983 20.7068 123.729 21.7465L124.701 21.984L125.672 22.2215C125.887 21.3412 126.183 20.6077 126.548 20.0063L125.693 19.488ZM124.701 21.984L123.73 21.7415C123.474 22.7686 123.349 23.8642 123.349 25.024H124.349H125.349C125.349 24.0078 125.458 23.0768 125.671 22.2265L124.701 21.984ZM124.349 25.024H123.349C123.349 26.1838 123.474 27.2794 123.73 28.3065L124.701 28.064L125.671 27.8215C125.458 26.9712 125.349 26.0402 125.349 25.024H124.349ZM124.701 28.064L123.73 28.3065C123.985 29.3258 124.351 30.2432 124.837 31.0463L125.693 30.528L126.548 30.0097C126.181 29.4048 125.885 28.6795 125.671 27.8215L124.701 28.064ZM125.693 30.528L124.837 31.0463C125.328 31.856 125.935 32.5228 126.667 33.0195L127.229 32.192L127.79 31.3645C127.327 31.0505 126.91 30.608 126.548 30.0097L125.693 30.528ZM127.229 32.192L126.701 33.0416C127.487 33.5294 128.365 33.768 129.309 33.768V32.768V31.768C128.716 31.768 128.207 31.6226 127.756 31.3424L127.229 32.192ZM141.227 36L140.244 36.1809L140.394 37H141.227V36ZM140.715 33.216L140.53 32.2333L139.552 32.4176L139.732 33.3969L140.715 33.216ZM142.923 32.8L143.108 33.7827L143.923 33.6292V32.8H142.923ZM142.923 17.088H143.923V16.1914L143.032 16.0939L142.923 17.088ZM140.875 16.864H139.875V17.7606L140.767 17.8581L140.875 16.864ZM140.875 13.888V12.888H139.875V13.888H140.875ZM149.067 13.888L150.002 13.5315L149.756 12.888H149.067V13.888ZM156.331 32.928L155.397 33.2845L157.331 32.928H156.331ZM156.331 17.024H157.331V16.1374L156.451 16.0312L156.331 17.024ZM154.475 16.8H153.475V17.6866L154.355 17.7928L154.475 16.8ZM154.475 13.888V12.888H153.475V13.888H154.475ZM161.355 13.888L162.342 13.7288L162.207 12.888H161.355V13.888ZM161.835 16.864L162.012 17.8483L162.979 17.6751L162.822 16.7048L161.835 16.864ZM159.691 17.248L159.515 16.2637L158.691 16.4112V17.248H159.691ZM159.691 36V37H160.691V36H159.691ZM153.227 36L152.294 36.3596L152.541 37H153.227V36ZM146.283 17.984L147.216 17.6244L145.283 17.984H146.283ZM146.283 32.672H145.283V33.4063L145.984 33.6261L146.283 32.672ZM147.915 33.184L148.915 33.1954L148.924 32.4523L148.215 32.2299L147.915 33.184ZM147.883 36V37H148.872L148.883 36.0114L147.883 36ZM141.227 36L142.211 35.8191L141.699 33.0351L140.715 33.216L139.732 33.3969L140.244 36.1809L141.227 36ZM140.715 33.216L140.9 34.1987L143.108 33.7827L142.923 32.8L142.738 31.8173L140.53 32.2333L140.715 33.216ZM142.923 32.8H143.923V17.088H142.923H141.923V32.8H142.923ZM142.923 17.088L143.032 16.0939L140.984 15.8699L140.875 16.864L140.767 17.8581L142.815 18.0821L142.923 17.088ZM140.875 16.864H141.875V13.888H140.875H139.875V16.864H140.875ZM140.875 13.888V14.888H149.067V13.888V12.888H140.875V13.888ZM149.067 13.888L148.133 14.2445L155.397 33.2845L156.331 32.928L157.266 32.5715L150.002 13.5315L149.067 13.888ZM156.331 32.928H157.331V17.024H156.331H155.331V32.928H156.331ZM156.331 17.024L156.451 16.0312L154.595 15.8072L154.475 16.8L154.355 17.7928L156.211 18.0168L156.331 17.024ZM154.475 16.8H155.475V13.888H154.475H153.475V16.8H154.475ZM154.475 13.888V14.888H161.355V13.888V12.888H154.475V13.888ZM161.355 13.888L160.368 14.0472L160.848 17.0232L161.835 16.864L162.822 16.7048L162.342 13.7288L161.355 13.888ZM161.835 16.864L161.659 15.8797L159.515 16.2637L159.691 17.248L159.868 18.2323L162.012 17.8483L161.835 16.864ZM159.691 17.248H158.691V36H159.691H160.691V17.248H159.691ZM159.691 36V35H153.227V36V37H159.691V36ZM153.227 36L154.16 35.6404L147.216 17.6244L146.283 17.984L145.35 18.3436L152.294 36.3596L153.227 36ZM146.283 17.984H145.283V32.672H146.283H147.283V17.984H146.283ZM146.283 32.672L145.984 33.6261L147.616 34.1381L147.915 33.184L148.215 32.2299L146.583 31.7179L146.283 32.672ZM147.915 33.184L146.915 33.1726L146.883 35.9886L147.883 36L148.883 36.0114L148.915 33.1954L147.915 33.184ZM147.883 36V35H141.227V36V37H147.883V36ZM164.477 36L163.49 36.1571L163.624 37H164.477V36ZM164.029 33.184L163.833 32.2034L162.891 32.3919L163.042 33.3411L164.029 33.184ZM166.109 32.768L166.305 33.7486L167.109 33.5878V32.768H166.109ZM166.109 16.96H167.109V16.065L166.22 15.9661L166.109 16.96ZM164.093 16.736H163.093V17.631L163.983 17.7299L164.093 16.736ZM164.093 13.888V12.888H163.093V13.888H164.093ZM178.685 13.888L179.681 13.7953L179.596 12.888H178.685V13.888ZM179.293 20.416V21.416H180.391L180.289 20.3233L179.293 20.416ZM176.797 20.416L175.873 20.7986L176.129 21.416H176.797V20.416ZM175.485 17.248L176.409 16.8654L176.153 16.248H175.485V17.248ZM170.301 17.248V16.248H169.301V17.248H170.301ZM170.301 22.944H169.301V23.944H170.301V22.944ZM175.165 22.944H176.165V21.944H175.165V22.944ZM175.165 26.304V27.304H176.165V26.304H175.165ZM170.301 26.304V25.304H169.301V26.304H170.301ZM170.301 32.64H169.301V33.64H170.301V32.64ZM175.709 32.64V33.64H176.403L176.646 32.9901L175.709 32.64ZM176.893 29.472V28.472H176.199L175.957 29.1219L176.893 29.472ZM179.421 29.472L180.416 29.5744L180.529 28.472H179.421V29.472ZM178.749 36V37H179.652L179.744 36.1024L178.749 36ZM164.477 36L165.465 35.8429L165.017 33.0269L164.029 33.184L163.042 33.3411L163.49 36.1571L164.477 36ZM164.029 33.184L164.225 34.1646L166.305 33.7486L166.109 32.768L165.913 31.7874L163.833 32.2034L164.029 33.184ZM166.109 32.768H167.109V16.96H166.109H165.109V32.768H166.109ZM166.109 16.96L166.22 15.9661L164.204 15.7421L164.093 16.736L163.983 17.7299L165.999 17.9539L166.109 16.96ZM164.093 16.736H165.093V13.888H164.093H163.093V16.736H164.093ZM164.093 13.888V14.888H178.685V13.888V12.888H164.093V13.888ZM178.685 13.888L177.69 13.9807L178.298 20.5087L179.293 20.416L180.289 20.3233L179.681 13.7953L178.685 13.888ZM179.293 20.416V19.416H176.797V20.416V21.416H179.293V20.416ZM176.797 20.416L177.721 20.0334L176.409 16.8654L175.485 17.248L174.561 17.6306L175.873 20.7986L176.797 20.416ZM175.485 17.248V16.248H170.301V17.248V18.248H175.485V17.248ZM170.301 17.248H169.301V22.944H170.301H171.301V17.248H170.301ZM170.301 22.944V23.944H175.165V22.944V21.944H170.301V22.944ZM175.165 22.944H174.165V26.304H175.165H176.165V22.944H175.165ZM175.165 26.304V25.304H170.301V26.304V27.304H175.165V26.304ZM170.301 26.304H169.301V32.64H170.301H171.301V26.304H170.301ZM170.301 32.64V33.64H175.709V32.64V31.64H170.301V32.64ZM175.709 32.64L176.646 32.9901L177.83 29.8221L176.893 29.472L175.957 29.1219L174.773 32.2899L175.709 32.64ZM176.893 29.472V30.472H179.421V29.472V28.472H176.893V29.472ZM179.421 29.472L178.427 29.3696L177.755 35.8976L178.749 36L179.744 36.1024L180.416 29.5744L179.421 29.472ZM178.749 36V35H164.477V36V37H178.749V36Z" fill="#F6F6F6" mask="url(#path-1-outside-1_84_2)"/>
</svg>
