<svg width="195" height="48" viewBox="0 0 195 48" fill="none" xmlns="http://www.w3.org/2000/svg">
<rect width="195" height="48" fill="#171717"/>
<mask id="path-1-outside-1_84_2" maskUnits="userSpaceOnUse" x="18.5" y="12" width="157" height="26" fill="black">
<rect fill="white" x="18.5" y="12" width="157" height="26"/>
<path d="M23.4703 36V34.336L27.0863 33.76V16.064H22.7023L21.4543 19.168H19.9823L20.7183 13.888H35.5983L36.3343 19.168H34.8623L33.6143 16.064H29.2623V33.76L32.9423 34.336V36H23.4703ZM38.8903 36L38.6663 34.208L40.4903 33.824V15.936L38.6663 15.776V13.888H51.4023L52.0423 19.36H50.5063L49.4183 16.064H42.6983V23.936H47.8823V25.952H42.6983V33.824H49.7383L50.8583 30.528H52.3623L51.7543 36H38.8903ZM65.5923 36.128C63.9709 36.128 62.5096 35.8507 61.2083 35.296C59.9069 34.7413 58.7869 33.9627 57.8483 32.96C56.9096 31.936 56.1843 30.7413 55.6723 29.376C55.1816 28.0107 54.9363 26.528 54.9363 24.928C54.9363 23.4133 55.1923 21.9947 55.7043 20.672C56.2163 19.3493 56.9416 18.176 57.8802 17.152C58.8403 16.128 59.9709 15.328 61.2723 14.752C62.5949 14.176 64.0563 13.888 65.6563 13.888C66.3389 13.888 66.9789 13.9307 67.5763 14.016C68.1949 14.08 68.8029 14.176 69.4003 14.304L69.9763 19.36H68.1523L67.3843 16.224C67.2349 16.2027 67.0536 16.1707 66.8403 16.128C66.6269 16.0853 66.2536 16.064 65.7203 16.064C63.9496 16.064 62.4349 16.48 61.1763 17.312C59.9176 18.144 58.9469 19.232 58.2643 20.576C57.6029 21.8987 57.2509 23.328 57.2083 24.864C57.2296 26.528 57.5709 28.0533 58.2323 29.44C58.8936 30.8053 59.8429 31.904 61.0803 32.736C62.3176 33.5467 63.8109 33.952 65.5603 33.952C66.2856 33.952 67.0109 33.856 67.7363 33.664C68.4829 33.4507 69.1229 33.1733 69.6562 32.832L70.4563 34.784C70.0936 35.04 69.6456 35.2747 69.1123 35.488C68.5789 35.68 68.0029 35.84 67.3843 35.968C66.7869 36.0747 66.1896 36.128 65.5923 36.128ZM73.4215 36L73.2615 34.208L75.0215 33.952V15.936L73.1655 15.808V13.888H78.8295L78.9575 15.68L77.1975 15.936V23.616H86.6695V15.936L84.8135 15.808V13.888H90.4455L90.6055 15.68L88.8455 15.936V33.952L90.7015 34.08V36H85.0375L84.9095 34.208L86.6695 33.952V25.632H77.1975V33.952L79.0535 34.08V36H73.4215ZM101.917 36L101.629 33.6L113.405 16.064H103.933L103.293 19.328H101.789V13.888H115.389L115.709 16.672L104.189 33.824H113.757L114.397 30.56H115.901V36H101.917ZM127.649 36.128C126.134 36.128 124.822 35.808 123.713 35.168C122.625 34.528 121.718 33.6747 120.993 32.608C120.289 31.52 119.766 30.3253 119.424 29.024C119.083 27.7013 118.913 26.368 118.913 25.024C118.913 23.68 119.083 22.3467 119.424 21.024C119.766 19.7013 120.289 18.5067 120.993 17.44C121.718 16.352 122.625 15.488 123.713 14.848C124.822 14.208 126.134 13.888 127.649 13.888C129.163 13.888 130.465 14.208 131.553 14.848C132.662 15.488 133.569 16.352 134.273 17.44C134.977 18.5067 135.499 19.7013 135.841 21.024C136.182 22.3467 136.353 23.68 136.353 25.024C136.353 26.368 136.182 27.7013 135.841 29.024C135.499 30.3253 134.977 31.52 134.273 32.608C133.569 33.6747 132.662 34.528 131.553 35.168C130.465 35.808 129.163 36.128 127.649 36.128ZM127.649 33.952C128.822 33.952 129.814 33.696 130.625 33.184C131.435 32.672 132.097 32 132.609 31.168C133.121 30.3147 133.494 29.3653 133.729 28.32C133.963 27.2533 134.081 26.176 134.081 25.088C134.081 24 133.963 22.9227 133.729 21.856C133.494 20.7893 133.121 19.8187 132.609 18.944C132.097 18.0693 131.435 17.376 130.625 16.864C129.814 16.3307 128.822 16.064 127.649 16.064C126.475 16.064 125.473 16.3307 124.641 16.864C123.83 17.376 123.169 18.0693 122.657 18.944C122.145 19.8187 121.771 20.7893 121.536 21.856C121.302 22.9227 121.185 24 121.185 25.088C121.185 26.176 121.302 27.2533 121.536 28.32C121.771 29.3653 122.145 30.3147 122.657 31.168C123.169 32 123.83 32.672 124.641 33.184C125.473 33.696 126.475 33.952 127.649 33.952ZM139.734 36L139.478 34.208L141.334 33.824V15.936L139.478 15.776V13.888H144.822L153.462 33.6V16L151.414 15.68V13.888H157.11L157.43 15.68L155.478 16.064V36H152.118L143.318 15.872V33.888L145.462 34.208V36H139.734ZM160.828 36L160.604 34.208L162.428 33.824V15.936L160.604 15.776V13.888H173.34L173.98 19.36H172.444L171.356 16.064H164.636V23.936H169.82V25.952H164.636V33.824H171.676L172.796 30.528H174.3L173.692 36H160.828Z"/>
</mask>
<path d="M23.4703 36V34.336L27.0863 33.76V16.064H22.7023L21.4543 19.168H19.9823L20.7183 13.888H35.5983L36.3343 19.168H34.8623L33.6143 16.064H29.2623V33.76L32.9423 34.336V36H23.4703ZM38.8903 36L38.6663 34.208L40.4903 33.824V15.936L38.6663 15.776V13.888H51.4023L52.0423 19.36H50.5063L49.4183 16.064H42.6983V23.936H47.8823V25.952H42.6983V33.824H49.7383L50.8583 30.528H52.3623L51.7543 36H38.8903ZM65.5923 36.128C63.9709 36.128 62.5096 35.8507 61.2083 35.296C59.9069 34.7413 58.7869 33.9627 57.8483 32.96C56.9096 31.936 56.1843 30.7413 55.6723 29.376C55.1816 28.0107 54.9363 26.528 54.9363 24.928C54.9363 23.4133 55.1923 21.9947 55.7043 20.672C56.2163 19.3493 56.9416 18.176 57.8802 17.152C58.8403 16.128 59.9709 15.328 61.2723 14.752C62.5949 14.176 64.0563 13.888 65.6563 13.888C66.3389 13.888 66.9789 13.9307 67.5763 14.016C68.1949 14.08 68.8029 14.176 69.4003 14.304L69.9763 19.36H68.1523L67.3843 16.224C67.2349 16.2027 67.0536 16.1707 66.8403 16.128C66.6269 16.0853 66.2536 16.064 65.7203 16.064C63.9496 16.064 62.4349 16.48 61.1763 17.312C59.9176 18.144 58.9469 19.232 58.2643 20.576C57.6029 21.8987 57.2509 23.328 57.2083 24.864C57.2296 26.528 57.5709 28.0533 58.2323 29.44C58.8936 30.8053 59.8429 31.904 61.0803 32.736C62.3176 33.5467 63.8109 33.952 65.5603 33.952C66.2856 33.952 67.0109 33.856 67.7363 33.664C68.4829 33.4507 69.1229 33.1733 69.6562 32.832L70.4563 34.784C70.0936 35.04 69.6456 35.2747 69.1123 35.488C68.5789 35.68 68.0029 35.84 67.3843 35.968C66.7869 36.0747 66.1896 36.128 65.5923 36.128ZM73.4215 36L73.2615 34.208L75.0215 33.952V15.936L73.1655 15.808V13.888H78.8295L78.9575 15.68L77.1975 15.936V23.616H86.6695V15.936L84.8135 15.808V13.888H90.4455L90.6055 15.68L88.8455 15.936V33.952L90.7015 34.08V36H85.0375L84.9095 34.208L86.6695 33.952V25.632H77.1975V33.952L79.0535 34.08V36H73.4215ZM101.917 36L101.629 33.6L113.405 16.064H103.933L103.293 19.328H101.789V13.888H115.389L115.709 16.672L104.189 33.824H113.757L114.397 30.56H115.901V36H101.917ZM127.649 36.128C126.134 36.128 124.822 35.808 123.713 35.168C122.625 34.528 121.718 33.6747 120.993 32.608C120.289 31.52 119.766 30.3253 119.424 29.024C119.083 27.7013 118.913 26.368 118.913 25.024C118.913 23.68 119.083 22.3467 119.424 21.024C119.766 19.7013 120.289 18.5067 120.993 17.44C121.718 16.352 122.625 15.488 123.713 14.848C124.822 14.208 126.134 13.888 127.649 13.888C129.163 13.888 130.465 14.208 131.553 14.848C132.662 15.488 133.569 16.352 134.273 17.44C134.977 18.5067 135.499 19.7013 135.841 21.024C136.182 22.3467 136.353 23.68 136.353 25.024C136.353 26.368 136.182 27.7013 135.841 29.024C135.499 30.3253 134.977 31.52 134.273 32.608C133.569 33.6747 132.662 34.528 131.553 35.168C130.465 35.808 129.163 36.128 127.649 36.128ZM127.649 33.952C128.822 33.952 129.814 33.696 130.625 33.184C131.435 32.672 132.097 32 132.609 31.168C133.121 30.3147 133.494 29.3653 133.729 28.32C133.963 27.2533 134.081 26.176 134.081 25.088C134.081 24 133.963 22.9227 133.729 21.856C133.494 20.7893 133.121 19.8187 132.609 18.944C132.097 18.0693 131.435 17.376 130.625 16.864C129.814 16.3307 128.822 16.064 127.649 16.064C126.475 16.064 125.473 16.3307 124.641 16.864C123.83 17.376 123.169 18.0693 122.657 18.944C122.145 19.8187 121.771 20.7893 121.536 21.856C121.302 22.9227 121.185 24 121.185 25.088C121.185 26.176 121.302 27.2533 121.536 28.32C121.771 29.3653 122.145 30.3147 122.657 31.168C123.169 32 123.83 32.672 124.641 33.184C125.473 33.696 126.475 33.952 127.649 33.952ZM139.734 36L139.478 34.208L141.334 33.824V15.936L139.478 15.776V13.888H144.822L153.462 33.6V16L151.414 15.68V13.888H157.11L157.43 15.68L155.478 16.064V36H152.118L143.318 15.872V33.888L145.462 34.208V36H139.734ZM160.828 36L160.604 34.208L162.428 33.824V15.936L160.604 15.776V13.888H173.34L173.98 19.36H172.444L171.356 16.064H164.636V23.936H169.82V25.952H164.636V33.824H171.676L172.796 30.528H174.3L173.692 36H160.828Z" fill="white"/>
<path d="M23.4703 36H22.4703V37H23.4703V36ZM23.4703 34.336L23.3129 33.3485L22.4703 33.4827V34.336H23.4703ZM27.0863 33.76L27.2436 34.7475L28.0863 34.6133V33.76H27.0863ZM27.0863 16.064H28.0863V15.064H27.0863V16.064ZM22.7023 16.064V15.064H22.0265L21.7744 15.691L22.7023 16.064ZM21.4543 19.168V20.168H22.13L22.3821 19.541L21.4543 19.168ZM19.9823 19.168L18.9918 19.0299L18.8332 20.168H19.9823V19.168ZM20.7183 13.888V12.888H19.848L19.7278 13.7499L20.7183 13.888ZM35.5983 13.888L36.5887 13.7499L36.4685 12.888H35.5983V13.888ZM36.3343 19.168V20.168H37.4833L37.3247 19.0299L36.3343 19.168ZM34.8623 19.168L33.9344 19.541L34.1865 20.168H34.8623V19.168ZM33.6143 16.064L34.5421 15.691L34.29 15.064H33.6143V16.064ZM29.2623 16.064V15.064H28.2623V16.064H29.2623ZM29.2623 33.76H28.2623V34.6157L29.1076 34.748L29.2623 33.76ZM32.9423 34.336H33.9423V33.4803L33.0969 33.348L32.9423 34.336ZM32.9423 36V37H33.9423V36H32.9423ZM23.4703 36H24.4703V34.336H23.4703H22.4703V36H23.4703ZM23.4703 34.336L23.6276 35.3235L27.2436 34.7475L27.0863 33.76L26.9289 32.7725L23.3129 33.3485L23.4703 34.336ZM27.0863 33.76H28.0863V16.064H27.0863H26.0863V33.76H27.0863ZM27.0863 16.064V15.064H22.7023V16.064V17.064H27.0863V16.064ZM22.7023 16.064L21.7744 15.691L20.5264 18.795L21.4543 19.168L22.3821 19.541L23.6301 16.437L22.7023 16.064ZM21.4543 19.168V18.168H19.9823V19.168V20.168H21.4543V19.168ZM19.9823 19.168L20.9727 19.3061L21.7087 14.0261L20.7183 13.888L19.7278 13.7499L18.9918 19.0299L19.9823 19.168ZM20.7183 13.888V14.888H35.5983V13.888V12.888H20.7183V13.888ZM35.5983 13.888L34.6078 14.0261L35.3438 19.3061L36.3343 19.168L37.3247 19.0299L36.5887 13.7499L35.5983 13.888ZM36.3343 19.168V18.168H34.8623V19.168V20.168H36.3343V19.168ZM34.8623 19.168L35.7901 18.795L34.5421 15.691L33.6143 16.064L32.6864 16.437L33.9344 19.541L34.8623 19.168ZM33.6143 16.064V15.064H29.2623V16.064V17.064H33.6143V16.064ZM29.2623 16.064H28.2623V33.76H29.2623H30.2623V16.064H29.2623ZM29.2623 33.76L29.1076 34.748L32.7876 35.324L32.9423 34.336L33.0969 33.348L29.4169 32.772L29.2623 33.76ZM32.9423 34.336H31.9423V36H32.9423H33.9423V34.336H32.9423ZM32.9423 36V35H23.4703V36V37H32.9423V36ZM38.8903 36L37.898 36.124L38.0075 37H38.8903V36ZM38.6663 34.208L38.4602 33.2295L37.5598 33.419L37.674 34.332L38.6663 34.208ZM40.4903 33.824L40.6963 34.8025L41.4903 34.6354V33.824H40.4903ZM40.4903 15.936H41.4903V15.0199L40.5776 14.9398L40.4903 15.936ZM38.6663 15.776H37.6663V16.6921L38.5789 16.7722L38.6663 15.776ZM38.6663 13.888V12.888H37.6663V13.888H38.6663ZM51.4023 13.888L52.3955 13.7718L52.2921 12.888H51.4023V13.888ZM52.0423 19.36V20.36H53.166L53.0355 19.2438L52.0423 19.36ZM50.5063 19.36L49.5566 19.6735L49.7833 20.36H50.5063V19.36ZM49.4183 16.064L50.3679 15.7505L50.1412 15.064H49.4183V16.064ZM42.6983 16.064V15.064H41.6983V16.064H42.6983ZM42.6983 23.936H41.6983V24.936H42.6983V23.936ZM47.8823 23.936H48.8823V22.936H47.8823V23.936ZM47.8823 25.952V26.952H48.8823V25.952H47.8823ZM42.6983 25.952V24.952H41.6983V25.952H42.6983ZM42.6983 33.824H41.6983V34.824H42.6983V33.824ZM49.7383 33.824V34.824H50.4546L50.6851 34.1457L49.7383 33.824ZM50.8583 30.528V29.528H50.1419L49.9114 30.2063L50.8583 30.528ZM52.3623 30.528L53.3561 30.6384L53.4795 29.528H52.3623V30.528ZM51.7543 36V37H52.6493L52.7481 36.1104L51.7543 36ZM38.8903 36L39.8825 35.876L39.6585 34.084L38.6663 34.208L37.674 34.332L37.898 36.124L38.8903 36ZM38.6663 34.208L38.8723 35.1865L40.6963 34.8025L40.4903 33.824L40.2842 32.8455L38.4602 33.2295L38.6663 34.208ZM40.4903 33.824H41.4903V15.936H40.4903H39.4903V33.824H40.4903ZM40.4903 15.936L40.5776 14.9398L38.7536 14.7798L38.6663 15.776L38.5789 16.7722L40.4029 16.9322L40.4903 15.936ZM38.6663 15.776H39.6663V13.888H38.6663H37.6663V15.776H38.6663ZM38.6663 13.888V14.888H51.4023V13.888V12.888H38.6663V13.888ZM51.4023 13.888L50.409 14.0042L51.049 19.4762L52.0423 19.36L53.0355 19.2438L52.3955 13.7718L51.4023 13.888ZM52.0423 19.36V18.36H50.5063V19.36V20.36H52.0423V19.36ZM50.5063 19.36L51.4559 19.0465L50.3679 15.7505L49.4183 16.064L48.4686 16.3775L49.5566 19.6735L50.5063 19.36ZM49.4183 16.064V15.064H42.6983V16.064V17.064H49.4183V16.064ZM42.6983 16.064H41.6983V23.936H42.6983H43.6983V16.064H42.6983ZM42.6983 23.936V24.936H47.8823V23.936V22.936H42.6983V23.936ZM47.8823 23.936H46.8823V25.952H47.8823H48.8823V23.936H47.8823ZM47.8823 25.952V24.952H42.6983V25.952V26.952H47.8823V25.952ZM42.6983 25.952H41.6983V33.824H42.6983H43.6983V25.952H42.6983ZM42.6983 33.824V34.824H49.7383V33.824V32.824H42.6983V33.824ZM49.7383 33.824L50.6851 34.1457L51.8051 30.8497L50.8583 30.528L49.9114 30.2063L48.7914 33.5023L49.7383 33.824ZM50.8583 30.528V31.528H52.3623V30.528V29.528H50.8583V30.528ZM52.3623 30.528L51.3684 30.4176L50.7604 35.8896L51.7543 36L52.7481 36.1104L53.3561 30.6384L52.3623 30.528ZM51.7543 36V35H38.8903V36V37H51.7543V36ZM61.2083 35.296L61.6003 34.3761L61.6003 34.3761L61.2083 35.296ZM57.8483 32.96L57.1111 33.6358L57.1182 33.6434L57.8483 32.96ZM55.6723 29.376L54.7311 29.7142L54.7359 29.7271L55.6723 29.376ZM55.7043 20.672L54.7717 20.311L54.7717 20.311L55.7043 20.672ZM57.8802 17.152L57.1507 16.468L57.1431 16.4763L57.8802 17.152ZM61.2723 14.752L60.873 13.8351L60.8675 13.8376L61.2723 14.752ZM67.5763 14.016L67.4348 15.0059L67.454 15.0087L67.4734 15.0107L67.5763 14.016ZM69.4003 14.304L70.3938 14.1908L70.3125 13.4768L69.6098 13.3262L69.4003 14.304ZM69.9763 19.36V20.36H71.0966L70.9698 19.2468L69.9763 19.36ZM68.1523 19.36L67.181 19.5979L67.3676 20.36H68.1523V19.36ZM67.3843 16.224L68.3555 15.9861L68.1948 15.3296L67.5257 15.234L67.3843 16.224ZM66.8403 16.128L67.0364 15.1474L67.0364 15.1474L66.8403 16.128ZM61.1763 17.312L60.6248 16.4778L60.6248 16.4778L61.1763 17.312ZM58.2643 20.576L57.3727 20.1231L57.3698 20.1288L58.2643 20.576ZM57.2083 24.864L56.2086 24.8362L56.2081 24.8565L56.2083 24.8768L57.2083 24.864ZM58.2323 29.44L57.3296 29.8705L57.3323 29.8759L58.2323 29.44ZM61.0803 32.736L60.5222 33.5659L60.5322 33.5725L61.0803 32.736ZM67.7363 33.664L67.9921 34.6307L68.0016 34.6282L68.011 34.6255L67.7363 33.664ZM69.6562 32.832L70.5816 32.4528L70.1269 31.3435L69.1172 31.9897L69.6562 32.832ZM70.4563 34.784L71.0329 35.601L71.6836 35.1417L71.3816 34.4048L70.4563 34.784ZM69.1123 35.488L69.451 36.4289L69.4674 36.423L69.4836 36.4165L69.1123 35.488ZM67.3843 35.968L67.56 36.9524L67.5735 36.95L67.5869 36.9473L67.3843 35.968ZM65.5923 36.128V35.128C64.0861 35.128 62.7609 34.8707 61.6003 34.3761L61.2083 35.296L60.8162 36.2159C62.2583 36.8306 63.8557 37.128 65.5923 37.128V36.128ZM61.2083 35.296L61.6003 34.3761C60.4229 33.8742 59.4191 33.1747 58.5783 32.2766L57.8483 32.96L57.1182 33.6434C58.1548 34.7506 59.3909 35.6084 60.8162 36.2159L61.2083 35.296ZM57.8483 32.96L58.5854 32.2843C57.7376 31.3594 57.0779 30.2763 56.6086 29.0249L55.6723 29.376L54.7359 29.7271C55.2906 31.2064 56.0816 32.5126 57.1111 33.6357L57.8483 32.96ZM55.6723 29.376L56.6133 29.0378C56.1655 27.7915 55.9363 26.4245 55.9363 24.928H54.9363H53.9363C53.9363 26.6315 54.1977 28.2298 54.7312 29.7142L55.6723 29.376ZM54.9363 24.928H55.9363C55.9363 23.5283 56.1723 22.2329 56.6368 21.033L55.7043 20.672L54.7717 20.311C54.2122 21.7564 53.9363 23.2983 53.9363 24.928H54.9363ZM55.7043 20.672L56.6368 21.033C57.1048 19.824 57.7647 18.758 58.6174 17.8277L57.8802 17.152L57.1431 16.4763C56.1185 17.594 55.3277 18.8747 54.7717 20.311L55.7043 20.672ZM57.8802 17.152L58.6098 17.8359C59.4768 16.9112 60.4965 16.1889 61.677 15.6664L61.2723 14.752L60.8675 13.8376C59.4453 14.4671 58.2037 15.3448 57.1507 16.4681L57.8802 17.152ZM61.2723 14.752L61.6715 15.6688C62.8551 15.1534 64.1786 14.888 65.6563 14.888V13.888V12.888C63.9339 12.888 62.3347 13.1986 60.873 13.8352L61.2723 14.752ZM65.6563 13.888V14.888C66.2976 14.888 66.89 14.9281 67.4348 15.0059L67.5763 14.016L67.7177 13.026C67.0679 12.9332 66.3802 12.888 65.6563 12.888V13.888ZM67.5763 14.016L67.4734 15.0107C68.0568 15.0711 68.6292 15.1615 69.1907 15.2818L69.4003 14.304L69.6098 13.3262C68.9766 13.1905 68.333 13.0889 67.6792 13.0213L67.5763 14.016ZM69.4003 14.304L68.4067 14.4172L68.9827 19.4732L69.9763 19.36L70.9698 19.2468L70.3938 14.1908L69.4003 14.304ZM69.9763 19.36V18.36H68.1523V19.36V20.36H69.9763V19.36ZM68.1523 19.36L69.1235 19.1221L68.3555 15.9861L67.3843 16.224L66.413 16.4619L67.181 19.5979L68.1523 19.36ZM67.3843 16.224L67.5257 15.234C67.4007 15.2162 67.2387 15.1879 67.0364 15.1474L66.8403 16.128L66.6441 17.1086C66.8684 17.1534 67.0691 17.1891 67.2428 17.2139L67.3843 16.224ZM66.8403 16.128L67.0364 15.1474C66.7153 15.0832 66.252 15.064 65.7203 15.064V16.064V17.064C66.2552 17.064 66.5385 17.0875 66.6441 17.1086L66.8403 16.128ZM65.7203 16.064V15.064C63.7882 15.064 62.0738 15.52 60.6248 16.4778L61.1763 17.312L61.7277 18.1462C62.796 17.44 64.1109 17.064 65.7203 17.064V16.064ZM61.1763 17.312L60.6248 16.4778C59.2218 17.4052 58.1339 18.6246 57.3727 20.1231L58.2643 20.576L59.1558 21.0289C59.76 19.8394 60.6134 18.8828 61.7277 18.1462L61.1763 17.312ZM58.2643 20.576L57.3698 20.1288C56.6407 21.5871 56.2552 23.1603 56.2086 24.8362L57.2083 24.864L58.2079 24.8918C58.2466 23.4957 58.5651 22.2103 59.1587 21.0232L58.2643 20.576ZM57.2083 24.864L56.2083 24.8768C56.2314 26.6732 56.601 28.3427 57.3296 29.8705L58.2323 29.44L59.1349 29.0095C58.5408 27.764 58.2278 26.3828 58.2082 24.8512L57.2083 24.864ZM58.2323 29.44L57.3323 29.8759C58.0693 31.3976 59.1354 32.6333 60.5223 33.5658L61.0803 32.736L61.6382 31.9062C60.5504 31.1747 59.7178 30.2131 59.1322 29.0041L58.2323 29.44ZM61.0803 32.736L60.5322 33.5725C61.9602 34.5081 63.6524 34.952 65.5603 34.952V33.952V32.952C63.9694 32.952 62.6749 32.5853 61.6283 31.8995L61.0803 32.736ZM65.5603 33.952V34.952C66.3749 34.952 67.1862 34.844 67.9921 34.6307L67.7363 33.664L67.4804 32.6973C66.8356 32.868 66.1963 32.952 65.5603 32.952V33.952ZM67.7363 33.664L68.011 34.6255C68.8308 34.3913 69.5641 34.0783 70.1953 33.6743L69.6562 32.832L69.1172 31.9897C68.6818 32.2684 68.135 32.51 67.4615 32.7025L67.7363 33.664ZM69.6562 32.832L68.7309 33.2112L69.5309 35.1632L70.4563 34.784L71.3816 34.4048L70.5816 32.4528L69.6562 32.832ZM70.4563 34.784L69.8796 33.967C69.5962 34.167 69.2216 34.3672 68.7409 34.5595L69.1123 35.488L69.4836 36.4165C70.0695 36.1821 70.591 35.913 71.0329 35.601L70.4563 34.784ZM69.1123 35.488L68.7735 34.5471C68.2893 34.7214 67.7593 34.8692 67.1816 34.9887L67.3843 35.968L67.5869 36.9473C68.2466 36.8108 68.8685 36.6386 69.451 36.4289L69.1123 35.488ZM67.3843 35.968L67.2085 34.9836C66.6682 35.08 66.1297 35.128 65.5923 35.128V36.128V37.128C66.2495 37.128 66.9056 37.0693 67.56 36.9524L67.3843 35.968ZM73.4215 36L72.4255 36.0889L72.5068 37H73.4215V36ZM73.2615 34.208L73.1176 33.2184L72.1813 33.3546L72.2655 34.2969L73.2615 34.208ZM75.0215 33.952L75.1654 34.9416L76.0215 34.8171V33.952H75.0215ZM75.0215 15.936H76.0215V15.0026L75.0903 14.9384L75.0215 15.936ZM73.1655 15.808H72.1655V16.7414L73.0967 16.8056L73.1655 15.808ZM73.1655 13.888V12.888H72.1655V13.888H73.1655ZM78.8295 13.888L79.827 13.8168L79.7606 12.888H78.8295V13.888ZM78.9575 15.68L79.1014 16.6696L80.0212 16.5358L79.955 15.6088L78.9575 15.68ZM77.1975 15.936L77.0536 14.9464L76.1975 15.0709V15.936H77.1975ZM77.1975 23.616H76.1975V24.616H77.1975V23.616ZM86.6695 23.616V24.616H87.6695V23.616H86.6695ZM86.6695 15.936H87.6695V15.0026L86.7383 14.9384L86.6695 15.936ZM84.8135 15.808H83.8135V16.7414L84.7447 16.8056L84.8135 15.808ZM84.8135 13.888V12.888H83.8135V13.888H84.8135ZM90.4455 13.888L91.4415 13.7991L91.3602 12.888H90.4455V13.888ZM90.6055 15.68L90.7494 16.6696L91.6857 16.5334L91.6015 15.5911L90.6055 15.68ZM88.8455 15.936L88.7016 14.9464L87.8455 15.0709V15.936H88.8455ZM88.8455 33.952H87.8455V34.8854L88.7767 34.9496L88.8455 33.952ZM90.7015 34.08H91.7015V33.1466L90.7703 33.0824L90.7015 34.08ZM90.7015 36V37H91.7015V36H90.7015ZM85.0375 36L84.04 36.0712L84.1064 37H85.0375V36ZM84.9095 34.208L84.7656 33.2184L83.8458 33.3522L83.912 34.2792L84.9095 34.208ZM86.6695 33.952L86.8134 34.9416L87.6695 34.8171V33.952H86.6695ZM86.6695 25.632H87.6695V24.632H86.6695V25.632ZM77.1975 25.632V24.632H76.1975V25.632H77.1975ZM77.1975 33.952H76.1975V34.8854L77.1287 34.9496L77.1975 33.952ZM79.0535 34.08H80.0535V33.1466L79.1223 33.0824L79.0535 34.08ZM79.0535 36V37H80.0535V36H79.0535ZM73.4215 36L74.4175 35.9111L74.2575 34.1191L73.2615 34.208L72.2655 34.2969L72.4255 36.0889L73.4215 36ZM73.2615 34.208L73.4054 35.1976L75.1654 34.9416L75.0215 33.952L74.8776 32.9624L73.1176 33.2184L73.2615 34.208ZM75.0215 33.952H76.0215V15.936H75.0215H74.0215V33.952H75.0215ZM75.0215 15.936L75.0903 14.9384L73.2343 14.8104L73.1655 15.808L73.0967 16.8056L74.9527 16.9336L75.0215 15.936ZM73.1655 15.808H74.1655V13.888H73.1655H72.1655V15.808H73.1655ZM73.1655 13.888V14.888H78.8295V13.888V12.888H73.1655V13.888ZM78.8295 13.888L77.832 13.9592L77.96 15.7512L78.9575 15.68L79.955 15.6088L79.827 13.8168L78.8295 13.888ZM78.9575 15.68L78.8136 14.6904L77.0536 14.9464L77.1975 15.936L77.3414 16.9256L79.1014 16.6696L78.9575 15.68ZM77.1975 15.936H76.1975V23.616H77.1975H78.1975V15.936H77.1975ZM77.1975 23.616V24.616H86.6695V23.616V22.616H77.1975V23.616ZM86.6695 23.616H87.6695V15.936H86.6695H85.6695V23.616H86.6695ZM86.6695 15.936L86.7383 14.9384L84.8823 14.8104L84.8135 15.808L84.7447 16.8056L86.6007 16.9336L86.6695 15.936ZM84.8135 15.808H85.8135V13.888H84.8135H83.8135V15.808H84.8135ZM84.8135 13.888V14.888H90.4455V13.888V12.888H84.8135V13.888ZM90.4455 13.888L89.4495 13.9769L89.6095 15.7689L90.6055 15.68L91.6015 15.5911L91.4415 13.7991L90.4455 13.888ZM90.6055 15.68L90.4616 14.6904L88.7016 14.9464L88.8455 15.936L88.9894 16.9256L90.7494 16.6696L90.6055 15.68ZM88.8455 15.936H87.8455V33.952H88.8455H89.8455V15.936H88.8455ZM88.8455 33.952L88.7767 34.9496L90.6327 35.0776L90.7015 34.08L90.7703 33.0824L88.9143 32.9544L88.8455 33.952ZM90.7015 34.08H89.7015V36H90.7015H91.7015V34.08H90.7015ZM90.7015 36V35H85.0375V36V37H90.7015V36ZM85.0375 36L86.035 35.9288L85.907 34.1368L84.9095 34.208L83.912 34.2792L84.04 36.0712L85.0375 36ZM84.9095 34.208L85.0534 35.1976L86.8134 34.9416L86.6695 33.952L86.5256 32.9624L84.7656 33.2184L84.9095 34.208ZM86.6695 33.952H87.6695V25.632H86.6695H85.6695V33.952H86.6695ZM86.6695 25.632V24.632H77.1975V25.632V26.632H86.6695V25.632ZM77.1975 25.632H76.1975V33.952H77.1975H78.1975V25.632H77.1975ZM77.1975 33.952L77.1287 34.9496L78.9847 35.0776L79.0535 34.08L79.1223 33.0824L77.2663 32.9544L77.1975 33.952ZM79.0535 34.08H78.0535V36H79.0535H80.0535V34.08H79.0535ZM79.0535 36V35H73.4215V36V37H79.0535V36ZM101.917 36L100.924 36.1191L101.03 37H101.917V36ZM101.629 33.6L100.799 33.0425L100.592 33.3506L100.636 33.7191L101.629 33.6ZM113.405 16.064L114.235 16.6215L115.281 15.064H113.405V16.064ZM103.933 16.064V15.064H103.11L102.952 15.8716L103.933 16.064ZM103.293 19.328V20.328H104.116L104.274 19.5204L103.293 19.328ZM101.789 19.328H100.789V20.328H101.789V19.328ZM101.789 13.888V12.888H100.789V13.888H101.789ZM115.389 13.888L116.382 13.7738L116.281 12.888H115.389V13.888ZM115.709 16.672L116.539 17.2296L116.745 16.9238L116.702 16.5578L115.709 16.672ZM104.189 33.824L103.359 33.2664L102.313 34.824H104.189V33.824ZM113.757 33.824V34.824H114.58L114.738 34.0164L113.757 33.824ZM114.397 30.56V29.56H113.574L113.416 30.3676L114.397 30.56ZM115.901 30.56H116.901V29.56H115.901V30.56ZM115.901 36V37H116.901V36H115.901ZM101.917 36L102.91 35.8809L102.622 33.4809L101.629 33.6L100.636 33.7191L100.924 36.1191L101.917 36ZM101.629 33.6L102.459 34.1575L114.235 16.6215L113.405 16.064L112.575 15.5065L100.799 33.0425L101.629 33.6ZM113.405 16.064V15.064H103.933V16.064V17.064H113.405V16.064ZM103.933 16.064L102.952 15.8716L102.312 19.1356L103.293 19.328L104.274 19.5204L104.914 16.2564L103.933 16.064ZM103.293 19.328V18.328H101.789V19.328V20.328H103.293V19.328ZM101.789 19.328H102.789V13.888H101.789H100.789V19.328H101.789ZM101.789 13.888V14.888H115.389V13.888V12.888H101.789V13.888ZM115.389 13.888L114.396 14.0022L114.716 16.7862L115.709 16.672L116.702 16.5578L116.382 13.7738L115.389 13.888ZM115.709 16.672L114.879 16.1144L103.359 33.2664L104.189 33.824L105.019 34.3816L116.539 17.2296L115.709 16.672ZM104.189 33.824V34.824H113.757V33.824V32.824H104.189V33.824ZM113.757 33.824L114.738 34.0164L115.378 30.7524L114.397 30.56L113.416 30.3676L112.776 33.6316L113.757 33.824ZM114.397 30.56V31.56H115.901V30.56V29.56H114.397V30.56ZM115.901 30.56H114.901V36H115.901H116.901V30.56H115.901ZM115.901 36V35H101.917V36V37H115.901V36ZM123.713 35.168L123.205 36.03L123.213 36.0342L123.713 35.168ZM120.993 32.608L120.153 33.1513L120.159 33.1609L120.166 33.1703L120.993 32.608ZM119.424 29.024L118.456 29.2739L118.457 29.2777L119.424 29.024ZM119.424 21.024L118.456 20.7741L118.456 20.7741L119.424 21.024ZM120.993 17.44L120.16 16.8853L120.158 16.8892L120.993 17.44ZM123.713 14.848L123.213 13.9818L123.205 13.9861L123.713 14.848ZM131.553 14.848L131.045 15.71L131.053 15.7142L131.553 14.848ZM134.273 17.44L133.433 17.9833L133.438 17.9908L134.273 17.44ZM135.841 21.024L136.809 20.7741L136.809 20.7741L135.841 21.024ZM135.841 29.024L136.808 29.2777L136.809 29.2739L135.841 29.024ZM134.273 32.608L135.107 33.1589L135.112 33.1513L134.273 32.608ZM131.553 35.168L131.053 34.3018L131.045 34.3061L131.553 35.168ZM130.625 33.184L130.091 32.3385L130.091 32.3385L130.625 33.184ZM132.609 31.168L133.46 31.6921L133.466 31.6825L132.609 31.168ZM133.729 28.32L134.704 28.539L134.705 28.5349L133.729 28.32ZM133.729 21.856L132.752 22.0709L132.752 22.0709L133.729 21.856ZM132.609 18.944L133.472 18.4388L133.472 18.4388L132.609 18.944ZM130.625 16.864L130.075 17.6994L130.083 17.7045L130.091 17.7095L130.625 16.864ZM124.641 16.864L125.175 17.7095L125.18 17.7059L124.641 16.864ZM122.657 18.944L121.793 18.4388L121.793 18.4388L122.657 18.944ZM121.536 21.856L120.56 21.6411L120.56 21.6411L121.536 21.856ZM121.536 28.32L120.56 28.5349L120.561 28.539L121.536 28.32ZM122.657 31.168L121.799 31.6825L121.805 31.6921L122.657 31.168ZM124.641 33.184L124.106 34.0295L124.116 34.0357L124.641 33.184ZM127.649 36.128V35.128C126.277 35.128 125.144 34.8393 124.212 34.3018L123.713 35.168L123.213 36.0342C124.5 36.7767 125.991 37.128 127.649 37.128V36.128ZM123.713 35.168L124.22 34.3061C123.262 33.7427 122.463 32.9928 121.819 32.0457L120.993 32.608L120.166 33.1703C120.972 34.3565 121.987 35.3133 123.205 36.0299L123.713 35.168ZM120.993 32.608L121.832 32.0647C121.188 31.0692 120.707 29.9729 120.392 28.7703L119.424 29.024L118.457 29.2777C118.824 30.6778 119.389 31.9708 120.153 33.1513L120.993 32.608ZM119.424 29.024L120.393 28.7741C120.072 27.5317 119.913 26.2823 119.913 25.024H118.913H117.913C117.913 26.4537 118.094 27.8709 118.456 29.2739L119.424 29.024ZM118.913 25.024H119.913C119.913 23.7657 120.072 22.5163 120.393 21.2739L119.424 21.024L118.456 20.7741C118.094 22.1771 117.913 23.5943 117.913 25.024H118.913ZM119.424 21.024L120.393 21.2739C120.708 20.0508 121.188 18.9591 121.827 17.9908L120.993 17.44L120.158 16.8892C119.389 18.0542 118.823 19.3518 118.456 20.7741L119.424 21.024ZM120.993 17.44L121.825 17.9947C122.469 17.0277 123.266 16.2706 124.22 15.7099L123.713 14.848L123.205 13.9861C121.983 14.7054 120.966 15.6763 120.16 16.8853L120.993 17.44ZM123.713 14.848L124.212 15.7142C125.144 15.1767 126.277 14.888 127.649 14.888V13.888V12.888C125.991 12.888 124.5 13.2393 123.213 13.9818L123.713 14.848ZM127.649 13.888V14.888C129.021 14.888 130.139 15.1769 131.045 15.7099L131.553 14.848L132.06 13.9861C130.79 13.2391 129.306 12.888 127.649 12.888V13.888ZM131.553 14.848L131.053 15.7142C132.023 16.274 132.814 17.0267 133.433 17.9833L134.273 17.44L135.112 16.8967C134.323 15.6773 133.301 14.702 132.052 13.9818L131.553 14.848ZM134.273 17.44L133.438 17.9908C134.077 18.9591 134.557 20.0508 134.872 21.2739L135.841 21.024L136.809 20.7741C136.442 19.3518 135.876 18.0542 135.107 16.8892L134.273 17.44ZM135.841 21.024L134.872 21.2739C135.193 22.5163 135.353 23.7657 135.353 25.024H136.353H137.353C137.353 23.5943 137.171 22.1771 136.809 20.7741L135.841 21.024ZM136.353 25.024H135.353C135.353 26.2823 135.193 27.5317 134.872 28.7741L135.841 29.024L136.809 29.2739C137.171 27.8709 137.353 26.4537 137.353 25.024H136.353ZM135.841 29.024L134.873 28.7703C134.558 29.9729 134.077 31.0692 133.433 32.0647L134.273 32.608L135.112 33.1513C135.876 31.9708 136.441 30.6778 136.808 29.2777L135.841 29.024ZM134.273 32.608L133.438 32.0572C132.82 32.9938 132.028 33.7393 131.053 34.3018L131.553 35.168L132.052 36.0342C133.296 35.3167 134.317 34.3555 135.107 33.1588L134.273 32.608ZM131.553 35.168L131.045 34.3061C130.139 34.8391 129.021 35.128 127.649 35.128V36.128V37.128C129.306 37.128 130.79 36.7769 132.06 36.0299L131.553 35.168ZM127.649 33.952V34.952C128.968 34.952 130.156 34.6629 131.158 34.0295L130.625 33.184L130.091 32.3385C129.472 32.7291 128.675 32.952 127.649 32.952V33.952ZM130.625 33.184L131.158 34.0295C132.101 33.4344 132.87 32.6515 133.46 31.6921L132.609 31.168L131.757 30.6439C131.323 31.3485 130.77 31.9096 130.091 32.3385L130.625 33.184ZM132.609 31.168L133.466 31.6825C134.037 30.7309 134.448 29.6806 134.704 28.539L133.729 28.32L132.753 28.101C132.54 29.0501 132.204 29.8985 131.751 30.6535L132.609 31.168ZM133.729 28.32L134.705 28.5349C134.955 27.3979 135.081 26.2485 135.081 25.088H134.081H133.081C133.081 26.1035 132.971 27.1088 132.752 28.1051L133.729 28.32ZM134.081 25.088H135.081C135.081 23.9275 134.955 22.7781 134.705 21.6411L133.729 21.856L132.752 22.0709C132.971 23.0672 133.081 24.0725 133.081 25.088H134.081ZM133.729 21.856L134.705 21.6411C134.45 20.4803 134.04 19.4105 133.472 18.4388L132.609 18.944L131.745 19.4492C132.201 20.2269 132.538 21.0984 132.752 22.0709L133.729 21.856ZM132.609 18.944L133.472 18.4388C132.883 17.4341 132.112 16.6209 131.158 16.0185L130.625 16.864L130.091 17.7095C130.758 18.1311 131.31 18.7045 131.745 19.4492L132.609 18.944ZM130.625 16.864L131.174 16.0286C130.169 15.3672 128.976 15.064 127.649 15.064V16.064V17.064C128.668 17.064 129.459 17.2941 130.075 17.6994L130.625 16.864ZM127.649 16.064V15.064C126.32 15.064 125.122 15.3675 124.101 16.0221L124.641 16.864L125.18 17.7059C125.823 17.2938 126.63 17.064 127.649 17.064V16.064ZM124.641 16.864L124.107 16.0185C123.153 16.6209 122.382 17.4341 121.793 18.4388L122.657 18.944L123.52 19.4492C123.955 18.7045 124.507 18.1311 125.174 17.7095L124.641 16.864ZM122.657 18.944L121.793 18.4388C121.225 19.4105 120.815 20.4803 120.56 21.6411L121.536 21.856L122.513 22.0709C122.727 21.0984 123.064 20.2269 123.52 19.4492L122.657 18.944ZM121.536 21.856L120.56 21.6411C120.31 22.7781 120.185 23.9275 120.185 25.088H121.185H122.185C122.185 24.0725 122.294 23.0672 122.513 22.0709L121.536 21.856ZM121.185 25.088H120.185C120.185 26.2485 120.31 27.3979 120.56 28.5349L121.536 28.32L122.513 28.1051C122.294 27.1088 122.185 26.1035 122.185 25.088H121.185ZM121.536 28.32L120.561 28.539C120.817 29.6806 121.228 30.7309 121.799 31.6825L122.657 31.168L123.514 30.6535C123.061 29.8985 122.725 29.0501 122.512 28.101L121.536 28.32ZM122.657 31.168L121.805 31.6921C122.395 32.6515 123.164 33.4344 124.107 34.0295L124.641 33.184L125.174 32.3385C124.495 31.9096 123.942 31.3485 123.508 30.6439L122.657 31.168ZM124.641 33.184L124.116 34.0357C125.135 34.6626 126.328 34.952 127.649 34.952V33.952V32.952C126.623 32.952 125.81 32.7294 125.165 32.3323L124.641 33.184ZM139.734 36L138.744 36.1414L138.867 37H139.734V36ZM139.478 34.208L139.275 33.2287L138.355 33.4191L138.488 34.3494L139.478 34.208ZM141.334 33.824L141.537 34.8033L142.334 34.6383V33.824H141.334ZM141.334 15.936H142.334V15.0185L141.42 14.9397L141.334 15.936ZM139.478 15.776H138.478V16.6935L139.392 16.7723L139.478 15.776ZM139.478 13.888V12.888H138.478V13.888H139.478ZM144.822 13.888L145.738 13.4866L145.476 12.888H144.822V13.888ZM153.462 33.6L152.546 34.0014L154.462 33.6H153.462ZM153.462 16H154.462V15.1441L153.616 15.012L153.462 16ZM151.414 15.68H150.414V16.5359L151.26 16.668L151.414 15.68ZM151.414 13.888V12.888H150.414V13.888H151.414ZM157.11 13.888L158.094 13.7122L157.947 12.888H157.11V13.888ZM157.43 15.68L157.623 16.6612L158.587 16.4715L158.414 15.5042L157.43 15.68ZM155.478 16.064L155.285 15.0828L154.478 15.2416V16.064H155.478ZM155.478 36V37H156.478V36H155.478ZM152.118 36L151.202 36.4006L151.464 37H152.118V36ZM143.318 15.872L144.234 15.4714L142.318 15.872H143.318ZM143.318 33.888H142.318V34.7498L143.17 34.877L143.318 33.888ZM145.462 34.208H146.462V33.3462L145.61 33.219L145.462 34.208ZM145.462 36V37H146.462V36H145.462ZM139.734 36L140.724 35.8586L140.468 34.0666L139.478 34.208L138.488 34.3494L138.744 36.1414L139.734 36ZM139.478 34.208L139.681 35.1873L141.537 34.8033L141.334 33.824L141.131 32.8447L139.275 33.2287L139.478 34.208ZM141.334 33.824H142.334V15.936H141.334H140.334V33.824H141.334ZM141.334 15.936L141.42 14.9397L139.564 14.7797L139.478 15.776L139.392 16.7723L141.248 16.9323L141.334 15.936ZM139.478 15.776H140.478V13.888H139.478H138.478V15.776H139.478ZM139.478 13.888V14.888H144.822V13.888V12.888H139.478V13.888ZM144.822 13.888L143.906 14.2894L152.546 34.0014L153.462 33.6L154.378 33.1986L145.738 13.4866L144.822 13.888ZM153.462 33.6H154.462V16H153.462H152.462V33.6H153.462ZM153.462 16L153.616 15.012L151.568 14.692L151.414 15.68L151.26 16.668L153.308 16.988L153.462 16ZM151.414 15.68H152.414V13.888H151.414H150.414V15.68H151.414ZM151.414 13.888V14.888H157.11V13.888V12.888H151.414V13.888ZM157.11 13.888L156.126 14.0638L156.446 15.8558L157.43 15.68L158.414 15.5042L158.094 13.7122L157.11 13.888ZM157.43 15.68L157.237 14.6988L155.285 15.0828L155.478 16.064L155.671 17.0452L157.623 16.6612L157.43 15.68ZM155.478 16.064H154.478V36H155.478H156.478V16.064H155.478ZM155.478 36V35H152.118V36V37H155.478V36ZM152.118 36L153.034 35.5994L144.234 15.4714L143.318 15.872L142.402 16.2726L151.202 36.4006L152.118 36ZM143.318 15.872H142.318V33.888H143.318H144.318V15.872H143.318ZM143.318 33.888L143.17 34.877L145.314 35.197L145.462 34.208L145.61 33.219L143.466 32.899L143.318 33.888ZM145.462 34.208H144.462V36H145.462H146.462V34.208H145.462ZM145.462 36V35H139.734V36V37H145.462V36ZM160.828 36L159.835 36.124L159.945 37H160.828V36ZM160.604 34.208L160.398 33.2295L159.497 33.419L159.611 34.332L160.604 34.208ZM162.428 33.824L162.634 34.8025L163.428 34.6354V33.824H162.428ZM162.428 15.936H163.428V15.0199L162.515 14.9398L162.428 15.936ZM160.604 15.776H159.604V16.6921L160.516 16.7722L160.604 15.776ZM160.604 13.888V12.888H159.604V13.888H160.604ZM173.34 13.888L174.333 13.7718L174.23 12.888H173.34V13.888ZM173.98 19.36V20.36H175.104L174.973 19.2438L173.98 19.36ZM172.444 19.36L171.494 19.6735L171.721 20.36H172.444V19.36ZM171.356 16.064L172.305 15.7505L172.079 15.064H171.356V16.064ZM164.636 16.064V15.064H163.636V16.064H164.636ZM164.636 23.936H163.636V24.936H164.636V23.936ZM169.82 23.936H170.82V22.936H169.82V23.936ZM169.82 25.952V26.952H170.82V25.952H169.82ZM164.636 25.952V24.952H163.636V25.952H164.636ZM164.636 33.824H163.636V34.824H164.636V33.824ZM171.676 33.824V34.824H172.392L172.623 34.1457L171.676 33.824ZM172.796 30.528V29.528H172.079L171.849 30.2063L172.796 30.528ZM174.3 30.528L175.294 30.6384L175.417 29.528H174.3V30.528ZM173.692 36V37H174.587L174.686 36.1104L173.692 36ZM160.828 36L161.82 35.876L161.596 34.084L160.604 34.208L159.611 34.332L159.835 36.124L160.828 36ZM160.604 34.208L160.81 35.1865L162.634 34.8025L162.428 33.824L162.222 32.8455L160.398 33.2295L160.604 34.208ZM162.428 33.824H163.428V15.936H162.428H161.428V33.824H162.428ZM162.428 15.936L162.515 14.9398L160.691 14.7798L160.604 15.776L160.516 16.7722L162.34 16.9322L162.428 15.936ZM160.604 15.776H161.604V13.888H160.604H159.604V15.776H160.604ZM160.604 13.888V14.888H173.34V13.888V12.888H160.604V13.888ZM173.34 13.888L172.347 14.0042L172.987 19.4762L173.98 19.36L174.973 19.2438L174.333 13.7718L173.34 13.888ZM173.98 19.36V18.36H172.444V19.36V20.36H173.98V19.36ZM172.444 19.36L173.393 19.0465L172.305 15.7505L171.356 16.064L170.406 16.3775L171.494 19.6735L172.444 19.36ZM171.356 16.064V15.064H164.636V16.064V17.064H171.356V16.064ZM164.636 16.064H163.636V23.936H164.636H165.636V16.064H164.636ZM164.636 23.936V24.936H169.82V23.936V22.936H164.636V23.936ZM169.82 23.936H168.82V25.952H169.82H170.82V23.936H169.82ZM169.82 25.952V24.952H164.636V25.952V26.952H169.82V25.952ZM164.636 25.952H163.636V33.824H164.636H165.636V25.952H164.636ZM164.636 33.824V34.824H171.676V33.824V32.824H164.636V33.824ZM171.676 33.824L172.623 34.1457L173.743 30.8497L172.796 30.528L171.849 30.2063L170.729 33.5023L171.676 33.824ZM172.796 30.528V31.528H174.3V30.528V29.528H172.796V30.528ZM174.3 30.528L173.306 30.4176L172.698 35.8896L173.692 36L174.686 36.1104L175.294 30.6384L174.3 30.528ZM173.692 36V35H160.828V36V37H173.692V36Z" fill="#F6F6F6" mask="url(#path-1-outside-1_84_2)"/>
</svg>
