<svg width="195" height="48" viewBox="0 0 195 48" fill="none" xmlns="http://www.w3.org/2000/svg">
<rect width="195" height="48" fill="white"/>
<mask id="path-1-outside-1_37_5" maskUnits="userSpaceOnUse" x="12.5" y="11" width="170" height="28" fill="black">
<rect fill="white" x="12.5" y="11" width="170" height="28"/>
<path d="M18.8848 36L18.5648 33.44L22.2448 32.736V17.248H18.6288L17.2528 20.448H14.7888L15.3968 13.888H33.1568L33.8608 20.416H31.4288L30.0208 17.248H26.3728V32.736L30.0848 33.44L29.7648 36H18.8848ZM35.8523 36L35.4043 33.184L37.4843 32.768V16.96L35.4683 16.736V13.888H50.0603L50.6683 20.416H48.1723L46.8603 17.248H41.6763V22.944H46.5403V26.304H41.6763V32.64H47.0843L48.2683 29.472H50.7963L50.1243 36H35.8523ZM63.5863 36.128C62.1569 36.128 60.7916 35.904 59.4903 35.456C58.1889 35.008 57.0369 34.336 56.0343 33.44C55.0316 32.5227 54.2423 31.392 53.6663 30.048C53.0903 28.6827 52.8023 27.104 52.8023 25.312C52.8023 23.4347 53.1009 21.792 53.6983 20.384C54.2956 18.9547 55.0956 17.76 56.0983 16.8C57.1223 15.84 58.2636 15.1147 59.5223 14.624C60.7809 14.1333 62.0609 13.888 63.3623 13.888C64.7916 13.888 65.9649 13.9947 66.8823 14.208C67.7996 14.4 68.4289 14.5493 68.7703 14.656L69.4103 21.28H66.8183L64.9303 17.312C64.7809 17.2907 64.6209 17.28 64.4503 17.28C64.2796 17.2587 64.0236 17.248 63.6823 17.248C62.5089 17.248 61.4209 17.5573 60.4183 18.176C59.4369 18.7947 58.6476 19.6693 58.0503 20.8C57.4529 21.9307 57.1329 23.2853 57.0903 24.864C57.1116 26.4 57.3996 27.7653 57.9543 28.96C58.5089 30.1333 59.2769 31.0613 60.2583 31.744C61.2609 32.4267 62.4236 32.768 63.7463 32.768C64.6209 32.768 65.4956 32.608 66.3703 32.288C67.2663 31.968 68.0129 31.4987 68.6103 30.88L69.9543 33.728C69.5703 34.176 69.0369 34.5813 68.3542 34.944C67.6929 35.3067 66.9463 35.5947 66.1143 35.808C65.2823 36.0213 64.4396 36.128 63.5863 36.128ZM72.4475 36L71.9675 33.152L74.0475 32.736V17.024L72.0315 16.8V13.888H79.8395L80.3195 16.864L78.2395 17.248V22.976H85.4395V17.024L83.6475 16.8V13.888H91.5515L92.0315 16.864L89.6315 17.248V32.832L91.9675 33.216L91.9355 36H84.0635L83.5835 33.152L85.4395 32.736V26.336H78.2395V32.832L80.2555 33.216L80.2875 36H72.4475ZM102.348 36L101.74 33.472L112.524 17.248H105.452L104.844 20.768H102.348V13.888H117.068L117.708 16.864L107.404 32.64H114.284L114.86 29.12H117.42V36H102.348ZM129.309 36.128C127.794 36.128 126.45 35.8613 125.277 35.328C124.125 34.7733 123.154 33.9947 122.365 32.992C121.575 31.9893 120.978 30.8053 120.573 29.44C120.167 28.0747 119.965 26.5813 119.965 24.96C119.965 23.3173 120.167 21.824 120.573 20.48C120.978 19.1147 121.575 17.9413 122.365 16.96C123.154 15.9573 124.125 15.1893 125.277 14.656C126.45 14.1013 127.794 13.824 129.309 13.824C130.823 13.824 132.157 14.1013 133.309 14.656C134.461 15.1893 135.431 15.9573 136.221 16.96C137.01 17.9413 137.607 19.1147 138.013 20.48C138.418 21.824 138.621 23.3173 138.621 24.96C138.621 26.5813 138.418 28.0747 138.013 29.44C137.607 30.8053 137.01 31.9893 136.221 32.992C135.431 33.9947 134.461 34.7733 133.309 35.328C132.157 35.8613 130.823 36.128 129.309 36.128ZM129.309 32.768C130.055 32.768 130.727 32.576 131.325 32.192C131.943 31.7867 132.466 31.232 132.893 30.528C133.319 29.824 133.65 29.0027 133.885 28.064C134.119 27.1253 134.237 26.112 134.237 25.024C134.237 23.936 134.119 22.9227 133.885 21.984C133.65 21.024 133.319 20.192 132.893 19.488C132.466 18.7627 131.943 18.1973 131.325 17.792C130.727 17.3867 130.055 17.184 129.309 17.184C128.541 17.184 127.847 17.3867 127.229 17.792C126.631 18.1973 126.119 18.7627 125.693 19.488C125.266 20.192 124.935 21.024 124.701 21.984C124.466 22.9227 124.349 23.936 124.349 25.024C124.349 26.112 124.466 27.1253 124.701 28.064C124.935 29.0027 125.266 29.824 125.693 30.528C126.119 31.232 126.631 31.7867 127.229 32.192C127.847 32.576 128.541 32.768 129.309 32.768ZM141.227 36L140.715 33.216L142.923 32.8V17.088L140.875 16.864V13.888H149.067L156.331 32.928V17.024L154.475 16.8V13.888H161.355L161.835 16.864L159.691 17.248V36H153.227L146.283 17.984V32.672L147.915 33.184L147.883 36H141.227ZM164.477 36L164.029 33.184L166.109 32.768V16.96L164.093 16.736V13.888H178.685L179.293 20.416H176.797L175.485 17.248H170.301V22.944H175.165V26.304H170.301V32.64H175.709L176.893 29.472H179.421L178.749 36H164.477Z"/>
</mask>
<path d="M18.8848 36L18.5648 33.44L22.2448 32.736V17.248H18.6288L17.2528 20.448H14.7888L15.3968 13.888H33.1568L33.8608 20.416H31.4288L30.0208 17.248H26.3728V32.736L30.0848 33.44L29.7648 36H18.8848ZM35.8523 36L35.4043 33.184L37.4843 32.768V16.96L35.4683 16.736V13.888H50.0603L50.6683 20.416H48.1723L46.8603 17.248H41.6763V22.944H46.5403V26.304H41.6763V32.64H47.0843L48.2683 29.472H50.7963L50.1243 36H35.8523ZM63.5863 36.128C62.1569 36.128 60.7916 35.904 59.4903 35.456C58.1889 35.008 57.0369 34.336 56.0343 33.44C55.0316 32.5227 54.2423 31.392 53.6663 30.048C53.0903 28.6827 52.8023 27.104 52.8023 25.312C52.8023 23.4347 53.1009 21.792 53.6983 20.384C54.2956 18.9547 55.0956 17.76 56.0983 16.8C57.1223 15.84 58.2636 15.1147 59.5223 14.624C60.7809 14.1333 62.0609 13.888 63.3623 13.888C64.7916 13.888 65.9649 13.9947 66.8823 14.208C67.7996 14.4 68.4289 14.5493 68.7703 14.656L69.4103 21.28H66.8183L64.9303 17.312C64.7809 17.2907 64.6209 17.28 64.4503 17.28C64.2796 17.2587 64.0236 17.248 63.6823 17.248C62.5089 17.248 61.4209 17.5573 60.4183 18.176C59.4369 18.7947 58.6476 19.6693 58.0503 20.8C57.4529 21.9307 57.1329 23.2853 57.0903 24.864C57.1116 26.4 57.3996 27.7653 57.9543 28.96C58.5089 30.1333 59.2769 31.0613 60.2583 31.744C61.2609 32.4267 62.4236 32.768 63.7463 32.768C64.6209 32.768 65.4956 32.608 66.3703 32.288C67.2663 31.968 68.0129 31.4987 68.6103 30.88L69.9543 33.728C69.5703 34.176 69.0369 34.5813 68.3542 34.944C67.6929 35.3067 66.9463 35.5947 66.1143 35.808C65.2823 36.0213 64.4396 36.128 63.5863 36.128ZM72.4475 36L71.9675 33.152L74.0475 32.736V17.024L72.0315 16.8V13.888H79.8395L80.3195 16.864L78.2395 17.248V22.976H85.4395V17.024L83.6475 16.8V13.888H91.5515L92.0315 16.864L89.6315 17.248V32.832L91.9675 33.216L91.9355 36H84.0635L83.5835 33.152L85.4395 32.736V26.336H78.2395V32.832L80.2555 33.216L80.2875 36H72.4475ZM102.348 36L101.74 33.472L112.524 17.248H105.452L104.844 20.768H102.348V13.888H117.068L117.708 16.864L107.404 32.64H114.284L114.86 29.12H117.42V36H102.348ZM129.309 36.128C127.794 36.128 126.45 35.8613 125.277 35.328C124.125 34.7733 123.154 33.9947 122.365 32.992C121.575 31.9893 120.978 30.8053 120.573 29.44C120.167 28.0747 119.965 26.5813 119.965 24.96C119.965 23.3173 120.167 21.824 120.573 20.48C120.978 19.1147 121.575 17.9413 122.365 16.96C123.154 15.9573 124.125 15.1893 125.277 14.656C126.45 14.1013 127.794 13.824 129.309 13.824C130.823 13.824 132.157 14.1013 133.309 14.656C134.461 15.1893 135.431 15.9573 136.221 16.96C137.01 17.9413 137.607 19.1147 138.013 20.48C138.418 21.824 138.621 23.3173 138.621 24.96C138.621 26.5813 138.418 28.0747 138.013 29.44C137.607 30.8053 137.01 31.9893 136.221 32.992C135.431 33.9947 134.461 34.7733 133.309 35.328C132.157 35.8613 130.823 36.128 129.309 36.128ZM129.309 32.768C130.055 32.768 130.727 32.576 131.325 32.192C131.943 31.7867 132.466 31.232 132.893 30.528C133.319 29.824 133.65 29.0027 133.885 28.064C134.119 27.1253 134.237 26.112 134.237 25.024C134.237 23.936 134.119 22.9227 133.885 21.984C133.65 21.024 133.319 20.192 132.893 19.488C132.466 18.7627 131.943 18.1973 131.325 17.792C130.727 17.3867 130.055 17.184 129.309 17.184C128.541 17.184 127.847 17.3867 127.229 17.792C126.631 18.1973 126.119 18.7627 125.693 19.488C125.266 20.192 124.935 21.024 124.701 21.984C124.466 22.9227 124.349 23.936 124.349 25.024C124.349 26.112 124.466 27.1253 124.701 28.064C124.935 29.0027 125.266 29.824 125.693 30.528C126.119 31.232 126.631 31.7867 127.229 32.192C127.847 32.576 128.541 32.768 129.309 32.768ZM141.227 36L140.715 33.216L142.923 32.8V17.088L140.875 16.864V13.888H149.067L156.331 32.928V17.024L154.475 16.8V13.888H161.355L161.835 16.864L159.691 17.248V36H153.227L146.283 17.984V32.672L147.915 33.184L147.883 36H141.227ZM164.477 36L164.029 33.184L166.109 32.768V16.96L164.093 16.736V13.888H178.685L179.293 20.416H176.797L175.485 17.248H170.301V22.944H175.165V26.304H170.301V32.64H175.709L176.893 29.472H179.421L178.749 36H164.477Z" fill="black"/>
<path d="M18.8848 36L16.9002 36.2481L17.1192 38H18.8848V36ZM18.5648 33.44L18.189 31.4756L16.3477 31.8279L16.5802 33.6881L18.5648 33.44ZM22.2448 32.736L22.6205 34.7004L24.2448 34.3897V32.736H22.2448ZM22.2448 17.248H24.2448V15.248H22.2448V17.248ZM18.6288 17.248V15.248H17.3117L16.7914 16.4579L18.6288 17.248ZM17.2528 20.448V22.448H18.5698L19.0901 21.2381L17.2528 20.448ZM14.7888 20.448L12.7973 20.2634L12.5948 22.448H14.7888V20.448ZM15.3968 13.888V11.888H13.5735L13.4053 13.7034L15.3968 13.888ZM33.1568 13.888L35.1452 13.6736L34.9527 11.888H33.1568V13.888ZM33.8608 20.416V22.416H36.088L35.8492 20.2016L33.8608 20.416ZM31.4288 20.416L29.6011 21.2283L30.129 22.416H31.4288V20.416ZM30.0208 17.248L31.8484 16.4357L31.3205 15.248H30.0208V17.248ZM26.3728 17.248V15.248H24.3728V17.248H26.3728ZM26.3728 32.736H24.3728V34.3923L26.0001 34.701L26.3728 32.736ZM30.0848 33.44L32.0693 33.6881L32.3022 31.8249L30.4574 31.475L30.0848 33.44ZM29.7648 36V38H31.5303L31.7493 36.2481L29.7648 36ZM18.8848 36L20.8693 35.7519L20.5493 33.1919L18.5648 33.44L16.5802 33.6881L16.9002 36.2481L18.8848 36ZM18.5648 33.44L18.9405 35.4044L22.6205 34.7004L22.2448 32.736L21.869 30.7716L18.189 31.4756L18.5648 33.44ZM22.2448 32.736H24.2448V17.248H22.2448H20.2448V32.736H22.2448ZM22.2448 17.248V15.248H18.6288V17.248V19.248H22.2448V17.248ZM18.6288 17.248L16.7914 16.4579L15.4154 19.6579L17.2528 20.448L19.0901 21.2381L20.4661 18.0381L18.6288 17.248ZM17.2528 20.448V18.448H14.7888V20.448V22.448H17.2528V20.448ZM14.7888 20.448L16.7802 20.6326L17.3882 14.0726L15.3968 13.888L13.4053 13.7034L12.7973 20.2634L14.7888 20.448ZM15.3968 13.888V15.888H33.1568V13.888V11.888H15.3968V13.888ZM33.1568 13.888L31.1683 14.1024L31.8723 20.6304L33.8608 20.416L35.8492 20.2016L35.1452 13.6736L33.1568 13.888ZM33.8608 20.416V18.416H31.4288V20.416V22.416H33.8608V20.416ZM31.4288 20.416L33.2564 19.6037L31.8484 16.4357L30.0208 17.248L28.1931 18.0603L29.6011 21.2283L31.4288 20.416ZM30.0208 17.248V15.248H26.3728V17.248V19.248H30.0208V17.248ZM26.3728 17.248H24.3728V32.736H26.3728H28.3728V17.248H26.3728ZM26.3728 32.736L26.0001 34.701L29.7121 35.405L30.0848 33.44L30.4574 31.475L26.7454 30.771L26.3728 32.736ZM30.0848 33.44L28.1002 33.1919L27.7802 35.7519L29.7648 36L31.7493 36.2481L32.0693 33.6881L30.0848 33.44ZM29.7648 36V34H18.8848V36V38H29.7648V36ZM35.8523 36L33.8771 36.3142L34.1453 38H35.8523V36ZM35.4043 33.184L35.012 31.2228L33.1271 31.5998L33.4291 33.4982L35.4043 33.184ZM37.4843 32.768L37.8765 34.7292L39.4843 34.4076V32.768H37.4843ZM37.4843 16.96H39.4843V15.1699L37.7051 14.9722L37.4843 16.96ZM35.4683 16.736H33.4683V18.5261L35.2474 18.7238L35.4683 16.736ZM35.4683 13.888V11.888H33.4683V13.888H35.4683ZM50.0603 13.888L52.0516 13.7025L51.8826 11.888H50.0603V13.888ZM50.6683 20.416V22.416H52.8632L52.6596 20.2305L50.6683 20.416ZM48.1723 20.416L46.3244 21.1813L46.8358 22.416H48.1723V20.416ZM46.8603 17.248L48.7081 16.4827L48.1967 15.248H46.8603V17.248ZM41.6763 17.248V15.248H39.6763V17.248H41.6763ZM41.6763 22.944H39.6763V24.944H41.6763V22.944ZM46.5403 22.944H48.5403V20.944H46.5403V22.944ZM46.5403 26.304V28.304H48.5403V26.304H46.5403ZM41.6763 26.304V24.304H39.6763V26.304H41.6763ZM41.6763 32.64H39.6763V34.64H41.6763V32.64ZM47.0843 32.64V34.64H48.4719L48.9577 33.3402L47.0843 32.64ZM48.2683 29.472V27.472H46.8806L46.3948 28.7718L48.2683 29.472ZM50.7963 29.472L52.7857 29.6768L53.0127 27.472H50.7963V29.472ZM50.1243 36V38H51.9289L52.1137 36.2048L50.1243 36ZM35.8523 36L37.8274 35.6858L37.3794 32.8698L35.4043 33.184L33.4291 33.4982L33.8771 36.3142L35.8523 36ZM35.4043 33.184L35.7965 35.1452L37.8765 34.7292L37.4843 32.768L37.092 30.8068L35.012 31.2228L35.4043 33.184ZM37.4843 32.768H39.4843V16.96H37.4843H35.4843V32.768H37.4843ZM37.4843 16.96L37.7051 14.9722L35.6891 14.7482L35.4683 16.736L35.2474 18.7238L37.2634 18.9478L37.4843 16.96ZM35.4683 16.736H37.4683V13.888H35.4683H33.4683V16.736H35.4683ZM35.4683 13.888V15.888H50.0603V13.888V11.888H35.4683V13.888ZM50.0603 13.888L48.0689 14.0735L48.6769 20.6015L50.6683 20.416L52.6596 20.2305L52.0516 13.7025L50.0603 13.888ZM50.6683 20.416V18.416H48.1723V20.416V22.416H50.6683V20.416ZM48.1723 20.416L50.0201 19.6507L48.7081 16.4827L46.8603 17.248L45.0124 18.0133L46.3244 21.1813L48.1723 20.416ZM46.8603 17.248V15.248H41.6763V17.248V19.248H46.8603V17.248ZM41.6763 17.248H39.6763V22.944H41.6763H43.6763V17.248H41.6763ZM41.6763 22.944V24.944H46.5403V22.944V20.944H41.6763V22.944ZM46.5403 22.944H44.5403V26.304H46.5403H48.5403V22.944H46.5403ZM46.5403 26.304V24.304H41.6763V26.304V28.304H46.5403V26.304ZM41.6763 26.304H39.6763V32.64H41.6763H43.6763V26.304H41.6763ZM41.6763 32.64V34.64H47.0843V32.64V30.64H41.6763V32.64ZM47.0843 32.64L48.9577 33.3402L50.1417 30.1722L48.2683 29.472L46.3948 28.7718L45.2108 31.9398L47.0843 32.64ZM48.2683 29.472V31.472H50.7963V29.472V27.472H48.2683V29.472ZM50.7963 29.472L48.8068 29.2672L48.1348 35.7952L50.1243 36L52.1137 36.2048L52.7857 29.6768L50.7963 29.472ZM50.1243 36V34H35.8523V36V38H50.1243V36ZM59.4903 35.456L60.1413 33.5649L60.1413 33.5649L59.4903 35.456ZM56.0343 33.44L54.6842 34.9156L54.6929 34.9235L54.7016 34.9313L56.0343 33.44ZM53.6663 30.048L51.8235 30.8254L51.828 30.8358L53.6663 30.048ZM53.6983 20.384L55.5394 21.1651L55.5436 21.1552L53.6983 20.384ZM56.0983 16.8L54.7304 15.3409L54.7227 15.3481L54.7151 15.3554L56.0983 16.8ZM59.5223 14.624L58.7958 12.7606L58.7958 12.7606L59.5223 14.624ZM66.8823 14.208L66.4292 16.156L66.4508 16.161L66.4725 16.1656L66.8823 14.208ZM68.7703 14.656L70.761 14.4637L70.6334 13.1428L69.3668 12.747L68.7703 14.656ZM69.4103 21.28V23.28H71.6128L71.401 21.0877L69.4103 21.28ZM66.8183 21.28L65.0123 22.1393L65.555 23.28H66.8183V21.28ZM64.9303 17.312L66.7362 16.4527L66.2752 15.4838L65.2131 15.3321L64.9303 17.312ZM64.4503 17.28L64.2022 19.2646L64.3257 19.28H64.4503V17.28ZM60.4183 18.176L59.368 16.4739L59.3598 16.479L59.3516 16.4841L60.4183 18.176ZM58.0503 20.8L56.2819 19.8658L56.2819 19.8658L58.0503 20.8ZM57.0903 24.864L55.091 24.81L55.0899 24.8509L55.0904 24.8918L57.0903 24.864ZM57.9543 28.96L56.1402 29.8022L56.1461 29.8148L57.9543 28.96ZM60.2583 31.744L59.1161 33.3858L59.1244 33.3915L59.1327 33.3972L60.2583 31.744ZM66.3703 32.288L65.6976 30.4045L65.6903 30.4071L65.6831 30.4098L66.3703 32.288ZM68.6103 30.88L70.419 30.0264L69.183 27.4074L67.1714 29.4908L68.6103 30.88ZM69.9543 33.728L71.4728 35.0296L72.3158 34.046L71.763 32.8744L69.9543 33.728ZM68.3542 34.944L67.4159 33.1778L67.4042 33.184L67.3926 33.1904L68.3542 34.944ZM66.1143 35.808L66.611 37.7453L66.611 37.7453L66.1143 35.808ZM63.5863 36.128V34.128C62.3698 34.128 61.2251 33.9381 60.1413 33.5649L59.4903 35.456L58.8392 37.3471C60.358 37.8699 61.944 38.128 63.5863 38.128V36.128ZM59.4903 35.456L60.1413 33.5649C59.0854 33.2014 58.1665 32.6632 57.3669 31.9487L56.0343 33.44L54.7016 34.9313C55.9073 36.0088 57.2924 36.8146 58.8392 37.3471L59.4903 35.456ZM56.0343 33.44L57.3843 31.9644C56.607 31.2533 55.9772 30.363 55.5045 29.2602L53.6663 30.048L51.828 30.8358C52.5073 32.421 53.4562 33.7921 54.6842 34.9156L56.0343 33.44ZM53.6663 30.048L55.509 29.2706C55.0561 28.1971 54.8023 26.8916 54.8023 25.312H52.8023H50.8023C50.8023 27.3164 51.1244 29.1683 51.8235 30.8254L53.6663 30.048ZM52.8023 25.312H54.8023C54.8023 23.6437 55.0678 22.2767 55.5394 21.1651L53.6983 20.384L51.8571 19.6029C51.134 21.3073 50.8023 23.2257 50.8023 25.312H52.8023ZM53.6983 20.384L55.5436 21.1552C56.0472 19.9502 56.6994 18.9934 57.4814 18.2446L56.0983 16.8L54.7151 15.3554C53.4918 16.5266 52.544 17.9591 51.8529 19.6128L53.6983 20.384ZM56.0983 16.8L57.4661 18.2591C58.3114 17.4666 59.2369 16.8818 60.2487 16.4874L59.5223 14.624L58.7958 12.7606C57.2903 13.3475 55.9331 14.2134 54.7304 15.3409L56.0983 16.8ZM59.5223 14.624L60.2487 16.4874C61.2848 16.0835 62.3189 15.888 63.3623 15.888V13.888V11.888C61.8029 11.888 60.2771 12.1831 58.7958 12.7606L59.5223 14.624ZM63.3623 13.888V15.888C64.7089 15.888 65.7157 15.9901 66.4292 16.156L66.8823 14.208L67.3353 12.26C66.2141 11.9992 64.8743 11.888 63.3623 11.888V13.888ZM66.8823 14.208L66.4725 16.1656C67.396 16.3589 67.9366 16.4909 68.1737 16.565L68.7703 14.656L69.3668 12.747C68.9212 12.6078 68.2032 12.4411 67.292 12.2504L66.8823 14.208ZM68.7703 14.656L66.7795 14.8483L67.4195 21.4723L69.4103 21.28L71.401 21.0877L70.761 14.4637L68.7703 14.656ZM69.4103 21.28V19.28H66.8183V21.28V23.28H69.4103V21.28ZM66.8183 21.28L68.6242 20.4207L66.7362 16.4527L64.9303 17.312L63.1243 18.1713L65.0123 22.1393L66.8183 21.28ZM64.9303 17.312L65.2131 15.3321C64.9588 15.2958 64.7035 15.28 64.4503 15.28V17.28V19.28C64.5384 19.28 64.603 19.2856 64.6474 19.2919L64.9303 17.312ZM64.4503 17.28L64.6983 15.2954C64.3999 15.2581 64.0426 15.248 63.6823 15.248V17.248V19.248C64.0046 19.248 64.1593 19.2592 64.2022 19.2646L64.4503 17.28ZM63.6823 17.248V15.248C62.1364 15.248 60.685 15.6613 59.368 16.4739L60.4183 18.176L61.4685 19.8781C62.1568 19.4533 62.8815 19.248 63.6823 19.248V17.248ZM60.4183 18.176L59.3516 16.4841C58.0445 17.3082 57.0256 18.458 56.2819 19.8658L58.0503 20.8L59.8186 21.7342C60.2696 20.8807 60.8294 20.2811 61.4849 19.8678L60.4183 18.176ZM58.0503 20.8L56.2819 19.8658C55.5112 21.3245 55.14 22.9948 55.091 24.81L57.0903 24.864L59.0895 24.918C59.1258 23.5759 59.3946 22.5368 59.8186 21.7342L58.0503 20.8ZM57.0903 24.864L55.0904 24.8918C55.115 26.6629 55.4489 28.3132 56.1402 29.8022L57.9543 28.96L59.7683 28.1178C59.3503 27.2175 59.1081 26.1371 59.0901 24.8362L57.0903 24.864ZM57.9543 28.96L56.1461 29.8148C56.837 31.2762 57.8235 32.4866 59.1161 33.3858L60.2583 31.744L61.4004 30.1022C60.7303 29.6361 60.1808 28.9904 59.7624 28.1052L57.9543 28.96ZM60.2583 31.744L59.1327 33.3972C60.4973 34.3263 62.0601 34.768 63.7463 34.768V32.768V30.768C62.7871 30.768 62.0246 30.527 61.3838 30.0908L60.2583 31.744ZM63.7463 32.768V34.768C64.8702 34.768 65.977 34.5615 67.0574 34.1662L66.3703 32.288L65.6831 30.4098C65.0142 30.6545 64.3717 30.768 63.7463 30.768V32.768ZM66.3703 32.288L67.0429 34.1715C68.1977 33.7591 69.2159 33.1321 70.0491 32.2692L68.6103 30.88L67.1714 29.4908C66.8099 29.8652 66.3348 30.1769 65.6976 30.4045L66.3703 32.288ZM68.6103 30.88L66.8015 31.7336L68.1455 34.5816L69.9543 33.728L71.763 32.8744L70.419 30.0264L68.6103 30.88ZM69.9543 33.728L68.4357 32.4264C68.2562 32.6359 67.9428 32.8979 67.4159 33.1778L68.3542 34.944L69.2926 36.7102C70.1311 36.2648 70.8843 35.7161 71.4728 35.0296L69.9543 33.728ZM68.3542 34.944L67.3926 33.1904C66.8966 33.4624 66.3094 33.6933 65.6175 33.8707L66.1143 35.808L66.611 37.7453C67.5831 37.4961 68.4893 37.1509 69.3159 36.6976L68.3542 34.944ZM66.1143 35.808L65.6175 33.8707C64.9467 34.0427 64.2709 34.128 63.5863 34.128V36.128V38.128C64.6082 38.128 65.6178 38 66.611 37.7453L66.1143 35.808ZM72.4475 36L70.4753 36.3324L70.7564 38H72.4475V36ZM71.9675 33.152L71.5753 31.1908L69.6729 31.5713L69.9953 33.4844L71.9675 33.152ZM74.0475 32.736L74.4397 34.6972L76.0475 34.3756V32.736H74.0475ZM74.0475 17.024H76.0475V15.2339L74.2684 15.0362L74.0475 17.024ZM72.0315 16.8H70.0315V18.5901L71.8106 18.7878L72.0315 16.8ZM72.0315 13.888V11.888H70.0315V13.888H72.0315ZM79.8395 13.888L81.814 13.5695L81.5428 11.888H79.8395V13.888ZM80.3195 16.864L80.6826 18.8308L82.6053 18.4758L82.294 16.5455L80.3195 16.864ZM78.2395 17.248L77.8764 15.2812L76.2395 15.5834V17.248H78.2395ZM78.2395 22.976H76.2395V24.976H78.2395V22.976ZM85.4395 22.976V24.976H87.4395V22.976H85.4395ZM85.4395 17.024H87.4395V15.2584L85.6876 15.0394L85.4395 17.024ZM83.6475 16.8H81.6475V18.5656L83.3994 18.7846L83.6475 16.8ZM83.6475 13.888V11.888H81.6475V13.888H83.6475ZM91.5515 13.888L93.526 13.5695L93.2548 11.888H91.5515V13.888ZM92.0315 16.864L92.3475 18.8389L94.3249 18.5225L94.006 16.5455L92.0315 16.864ZM89.6315 17.248L89.3155 15.2731L87.6315 15.5426V17.248H89.6315ZM89.6315 32.832H87.6315V34.5301L89.3071 34.8055L89.6315 32.832ZM91.9675 33.216L93.9674 33.239L93.9871 31.5211L92.2919 31.2425L91.9675 33.216ZM91.9355 36V38H93.9126L93.9354 36.023L91.9355 36ZM84.0635 36L82.0913 36.3324L82.3724 38H84.0635V36ZM83.5835 33.152L83.1461 31.2004L81.2963 31.615L81.6113 33.4844L83.5835 33.152ZM85.4395 32.736L85.8769 34.6876L87.4395 34.3373V32.736H85.4395ZM85.4395 26.336H87.4395V24.336H85.4395V26.336ZM78.2395 26.336V24.336H76.2395V26.336H78.2395ZM78.2395 32.832H76.2395V34.487L77.8653 34.7967L78.2395 32.832ZM80.2555 33.216L82.2554 33.193L82.2366 31.5574L80.6297 31.2513L80.2555 33.216ZM80.2875 36V38H82.3106L82.2874 35.977L80.2875 36ZM72.4475 36L74.4197 35.6676L73.9397 32.8196L71.9675 33.152L69.9953 33.4844L70.4753 36.3324L72.4475 36ZM71.9675 33.152L72.3597 35.1132L74.4397 34.6972L74.0475 32.736L73.6553 30.7748L71.5753 31.1908L71.9675 33.152ZM74.0475 32.736H76.0475V17.024H74.0475H72.0475V32.736H74.0475ZM74.0475 17.024L74.2684 15.0362L72.2524 14.8122L72.0315 16.8L71.8106 18.7878L73.8266 19.0118L74.0475 17.024ZM72.0315 16.8H74.0315V13.888H72.0315H70.0315V16.8H72.0315ZM72.0315 13.888V15.888H79.8395V13.888V11.888H72.0315V13.888ZM79.8395 13.888L77.865 14.2065L78.345 17.1825L80.3195 16.864L82.294 16.5455L81.814 13.5695L79.8395 13.888ZM80.3195 16.864L79.9564 14.8972L77.8764 15.2812L78.2395 17.248L78.6026 19.2148L80.6826 18.8308L80.3195 16.864ZM78.2395 17.248H76.2395V22.976H78.2395H80.2395V17.248H78.2395ZM78.2395 22.976V24.976H85.4395V22.976V20.976H78.2395V22.976ZM85.4395 22.976H87.4395V17.024H85.4395H83.4395V22.976H85.4395ZM85.4395 17.024L85.6876 15.0394L83.8956 14.8154L83.6475 16.8L83.3994 18.7846L85.1914 19.0086L85.4395 17.024ZM83.6475 16.8H85.6475V13.888H83.6475H81.6475V16.8H83.6475ZM83.6475 13.888V15.888H91.5515V13.888V11.888H83.6475V13.888ZM91.5515 13.888L89.577 14.2065L90.057 17.1825L92.0315 16.864L94.006 16.5455L93.526 13.5695L91.5515 13.888ZM92.0315 16.864L91.7155 14.8891L89.3155 15.2731L89.6315 17.248L89.9475 19.2229L92.3475 18.8389L92.0315 16.864ZM89.6315 17.248H87.6315V32.832H89.6315H91.6315V17.248H89.6315ZM89.6315 32.832L89.3071 34.8055L91.6431 35.1895L91.9675 33.216L92.2919 31.2425L89.9559 30.8585L89.6315 32.832ZM91.9675 33.216L89.9676 33.193L89.9356 35.977L91.9355 36L93.9354 36.023L93.9674 33.239L91.9675 33.216ZM91.9355 36V34H84.0635V36V38H91.9355V36ZM84.0635 36L86.0357 35.6676L85.5557 32.8196L83.5835 33.152L81.6113 33.4844L82.0913 36.3324L84.0635 36ZM83.5835 33.152L84.0209 35.1036L85.8769 34.6876L85.4395 32.736L85.0021 30.7844L83.1461 31.2004L83.5835 33.152ZM85.4395 32.736H87.4395V26.336H85.4395H83.4395V32.736H85.4395ZM85.4395 26.336V24.336H78.2395V26.336V28.336H85.4395V26.336ZM78.2395 26.336H76.2395V32.832H78.2395H80.2395V26.336H78.2395ZM78.2395 32.832L77.8653 34.7967L79.8813 35.1807L80.2555 33.216L80.6297 31.2513L78.6137 30.8673L78.2395 32.832ZM80.2555 33.216L78.2556 33.239L78.2876 36.023L80.2875 36L82.2874 35.977L82.2554 33.193L80.2555 33.216ZM80.2875 36V34H72.4475V36V38H80.2875V36ZM102.348 36L100.403 36.4677L100.772 38H102.348V36ZM101.74 33.472L100.074 32.3649L99.5912 33.0914L99.7952 33.9397L101.74 33.472ZM112.524 17.248L114.189 18.3551L116.255 15.248H112.524V17.248ZM105.452 17.248V15.248H103.768L103.481 16.9076L105.452 17.248ZM104.844 20.768V22.768H106.528L106.815 21.1084L104.844 20.768ZM102.348 20.768H100.348V22.768H102.348V20.768ZM102.348 13.888V11.888H100.348V13.888H102.348ZM117.068 13.888L119.023 13.4675L118.683 11.888H117.068V13.888ZM117.708 16.864L119.382 17.9577L119.838 17.2592L119.663 16.4435L117.708 16.864ZM107.404 32.64L105.729 31.5463L103.709 34.64H107.404V32.64ZM114.284 32.64V34.64H115.983L116.257 32.963L114.284 32.64ZM114.86 29.12V27.12H113.16L112.886 28.797L114.86 29.12ZM117.42 29.12H119.42V27.12H117.42V29.12ZM117.42 36V38H119.42V36H117.42ZM102.348 36L104.292 35.5323L103.684 33.0043L101.74 33.472L99.7952 33.9397L100.403 36.4677L102.348 36ZM101.74 33.472L103.405 34.5791L114.189 18.3551L112.524 17.248L110.858 16.1409L100.074 32.3649L101.74 33.472ZM112.524 17.248V15.248H105.452V17.248V19.248H112.524V17.248ZM105.452 17.248L103.481 16.9076L102.873 20.4276L104.844 20.768L106.815 21.1084L107.423 17.5884L105.452 17.248ZM104.844 20.768V18.768H102.348V20.768V22.768H104.844V20.768ZM102.348 20.768H104.348V13.888H102.348H100.348V20.768H102.348ZM102.348 13.888V15.888H117.068V13.888V11.888H102.348V13.888ZM117.068 13.888L115.112 14.3085L115.752 17.2845L117.708 16.864L119.663 16.4435L119.023 13.4675L117.068 13.888ZM117.708 16.864L116.033 15.7703L105.729 31.5463L107.404 32.64L109.078 33.7337L119.382 17.9577L117.708 16.864ZM107.404 32.64V34.64H114.284V32.64V30.64H107.404V32.64ZM114.284 32.64L116.257 32.963L116.833 29.443L114.86 29.12L112.886 28.797L112.31 32.317L114.284 32.64ZM114.86 29.12V31.12H117.42V29.12V27.12H114.86V29.12ZM117.42 29.12H115.42V36H117.42H119.42V29.12H117.42ZM117.42 36V34H102.348V36V38H117.42V36ZM125.277 35.328L124.409 37.13L124.429 37.1396L124.449 37.1487L125.277 35.328ZM122.365 32.992L123.936 31.7549L123.936 31.7549L122.365 32.992ZM120.573 29.44L122.49 28.8708L122.49 28.8708L120.573 29.44ZM120.573 20.48L122.487 21.0575L122.49 21.0492L120.573 20.48ZM122.365 16.96L123.923 18.2135L123.929 18.2054L123.936 18.1971L122.365 16.96ZM125.277 14.656L126.117 16.4709L126.124 16.4676L126.131 16.4641L125.277 14.656ZM133.309 14.656L132.441 16.458L132.455 16.4646L132.468 16.4709L133.309 14.656ZM136.221 16.96L134.649 18.1971L134.656 18.2054L134.662 18.2135L136.221 16.96ZM138.013 20.48L136.095 21.0492L136.098 21.0575L138.013 20.48ZM136.221 32.992L134.649 31.7549L134.649 31.7549L136.221 32.992ZM133.309 35.328L134.149 37.1429L134.162 37.1366L134.176 37.13L133.309 35.328ZM131.325 32.192L132.406 33.8744L132.413 33.8697L132.421 33.8649L131.325 32.192ZM132.893 30.528L134.603 31.5646L134.603 31.5646L132.893 30.528ZM133.885 28.064L135.825 28.5491L135.825 28.5491L133.885 28.064ZM133.885 21.984L131.942 22.4589L131.944 22.4691L133.885 21.984ZM132.893 19.488L131.169 20.502L131.175 20.5134L131.182 20.5246L132.893 19.488ZM131.325 17.792L130.201 19.447L130.215 19.456L130.228 19.4649L131.325 17.792ZM127.229 17.792L126.132 16.1191L126.119 16.128L126.105 16.137L127.229 17.792ZM125.693 19.488L127.403 20.5246L127.41 20.5134L127.416 20.502L125.693 19.488ZM124.701 21.984L126.641 22.4691L126.643 22.4589L124.701 21.984ZM124.701 28.064L126.641 27.5789L126.641 27.5789L124.701 28.064ZM125.693 30.528L123.982 31.5646L123.982 31.5646L125.693 30.528ZM127.229 32.192L126.105 33.847L126.139 33.8698L126.174 33.8913L127.229 32.192ZM129.309 36.128V34.128C128.03 34.128 126.976 33.9036 126.104 33.5073L125.277 35.328L124.449 37.1487C125.924 37.8191 127.558 38.128 129.309 38.128V36.128ZM125.277 35.328L126.144 33.526C125.266 33.1033 124.536 32.5176 123.936 31.7549L122.365 32.992L120.793 34.2291C121.771 35.4717 122.983 36.4434 124.409 37.13L125.277 35.328ZM122.365 32.992L123.936 31.7549C123.32 30.9728 122.831 30.0217 122.49 28.8708L120.573 29.44L118.655 30.0092C119.124 31.589 119.83 33.0059 120.793 34.2291L122.365 32.992ZM120.573 29.44L122.49 28.8708C122.146 27.7137 121.965 26.4148 121.965 24.96H119.965H117.965C117.965 26.7479 118.188 28.4356 118.655 30.0092L120.573 29.44ZM119.965 24.96H121.965C121.965 23.4806 122.147 22.1855 122.487 21.0575L120.573 20.48L118.658 19.9025C118.187 21.4625 117.965 23.1541 117.965 24.96H119.965ZM120.573 20.48L122.49 21.0492C122.831 19.9007 123.317 18.9674 123.923 18.2135L122.365 16.96L120.806 15.7065C119.834 16.9152 119.125 18.3287 118.655 19.9108L120.573 20.48ZM122.365 16.96L123.936 18.1971C124.532 17.4406 125.252 16.8712 126.117 16.4709L125.277 14.656L124.436 12.8411C122.997 13.5075 121.776 14.4741 120.793 15.7229L122.365 16.96ZM125.277 14.656L126.131 16.4641C126.996 16.0552 128.04 15.824 129.309 15.824V13.824V11.824C127.547 11.824 125.903 12.1474 124.422 12.8479L125.277 14.656ZM129.309 13.824V15.824C130.578 15.824 131.605 16.0556 132.441 16.458L133.309 14.656L134.176 12.854C132.708 12.1471 131.069 11.824 129.309 11.824V13.824ZM133.309 14.656L132.468 16.4709C133.333 16.8712 134.053 17.4406 134.649 18.1971L136.221 16.96L137.792 15.7229C136.809 14.4741 135.588 13.5075 134.149 12.8411L133.309 14.656ZM136.221 16.96L134.662 18.2135C135.268 18.9674 135.754 19.9007 136.095 21.0492L138.013 20.48L139.93 19.9108C139.46 18.3287 138.751 16.9152 137.779 15.7065L136.221 16.96ZM138.013 20.48L136.098 21.0575C136.438 22.1855 136.621 23.4806 136.621 24.96H138.621H140.621C140.621 23.1541 140.398 21.4625 139.927 19.9025L138.013 20.48ZM138.621 24.96H136.621C136.621 26.4148 136.439 27.7137 136.095 28.8708L138.013 29.44L139.93 30.0092C140.397 28.4356 140.621 26.7479 140.621 24.96H138.621ZM138.013 29.44L136.095 28.8708C135.754 30.0217 135.265 30.9728 134.649 31.7549L136.221 32.992L137.792 34.2291C138.755 33.0059 139.461 31.589 139.93 30.0092L138.013 29.44ZM136.221 32.992L134.649 31.7549C134.049 32.5176 133.319 33.1033 132.441 33.526L133.309 35.328L134.176 37.13C135.602 36.4434 136.814 35.4717 137.792 34.2291L136.221 32.992ZM133.309 35.328L132.468 33.5131C131.626 33.9032 130.588 34.128 129.309 34.128V36.128V38.128C131.058 38.128 132.687 37.8195 134.149 37.1429L133.309 35.328ZM129.309 32.768V34.768C130.418 34.768 131.469 34.4767 132.406 33.8744L131.325 32.192L130.243 30.5096C129.985 30.6753 129.692 30.768 129.309 30.768V32.768ZM131.325 32.192L132.421 33.8649C133.316 33.2783 134.039 32.4948 134.603 31.5646L132.893 30.528L131.182 29.4914C130.893 29.9692 130.57 30.295 130.228 30.5191L131.325 32.192ZM132.893 30.528L134.603 31.5646C135.15 30.6624 135.55 29.6489 135.825 28.5491L133.885 28.064L131.944 27.5789C131.75 28.3564 131.489 28.9856 131.182 29.4914L132.893 30.528ZM133.885 28.064L135.825 28.5491C136.104 27.4335 136.237 26.2556 136.237 25.024H134.237H132.237C132.237 25.9684 132.135 26.8172 131.944 27.5789L133.885 28.064ZM134.237 25.024H136.237C136.237 23.7924 136.104 22.6145 135.825 21.4989L133.885 21.984L131.944 22.4691C132.135 23.2308 132.237 24.0796 132.237 25.024H134.237ZM133.885 21.984L135.827 21.5091C135.554 20.3895 135.154 19.3605 134.603 18.4514L132.893 19.488L131.182 20.5246C131.484 21.0235 131.746 21.6585 131.942 22.4589L133.885 21.984ZM132.893 19.488L134.616 18.474C134.055 17.5204 133.33 16.7147 132.421 16.1191L131.325 17.792L130.228 19.4649C130.557 19.6799 130.876 20.005 131.169 20.502L132.893 19.488ZM131.325 17.792L132.448 16.137C131.507 15.4988 130.441 15.184 129.309 15.184V17.184V19.184C129.669 19.184 129.947 19.2745 130.201 19.447L131.325 17.792ZM129.309 17.184V15.184C128.167 15.184 127.09 15.4919 126.132 16.1191L127.229 17.792L128.325 19.4649C128.605 19.2815 128.914 19.184 129.309 19.184V17.184ZM127.229 17.792L126.105 16.137C125.225 16.7343 124.521 17.5352 123.969 18.474L125.693 19.488L127.416 20.502C127.718 19.9901 128.037 19.6604 128.352 19.447L127.229 17.792ZM125.693 19.488L123.982 18.4514C123.431 19.3605 123.031 20.3895 122.758 21.5091L124.701 21.984L126.643 22.4589C126.839 21.6585 127.101 21.0235 127.403 20.5246L125.693 19.488ZM124.701 21.984L122.76 21.4989C122.481 22.6145 122.349 23.7924 122.349 25.024H124.349H126.349C126.349 24.0796 126.45 23.2308 126.641 22.4691L124.701 21.984ZM124.349 25.024H122.349C122.349 26.2556 122.481 27.4335 122.76 28.5491L124.701 28.064L126.641 27.5789C126.45 26.8172 126.349 25.9684 126.349 25.024H124.349ZM124.701 28.064L122.76 28.5491C123.035 29.6489 123.435 30.6624 123.982 31.5646L125.693 30.528L127.403 29.4914C127.096 28.9856 126.835 28.3564 126.641 27.5789L124.701 28.064ZM125.693 30.528L123.982 31.5646C124.537 32.4801 125.239 33.2589 126.105 33.847L127.229 32.192L128.352 30.537C128.023 30.3144 127.701 29.9839 127.403 29.4914L125.693 30.528ZM127.229 32.192L126.174 33.8913C127.127 34.4828 128.189 34.768 129.309 34.768V32.768V30.768C128.892 30.768 128.568 30.6692 128.283 30.4927L127.229 32.192ZM141.227 36L139.26 36.3617L139.562 38H141.227V36ZM140.715 33.216L140.345 31.2506L138.388 31.6193L138.748 33.5777L140.715 33.216ZM142.923 32.8L143.294 34.7654L144.923 34.4584V32.8H142.923ZM142.923 17.088H144.923V15.2948L143.141 15.0999L142.923 17.088ZM140.875 16.864H138.875V18.6572L140.658 18.8521L140.875 16.864ZM140.875 13.888V11.888H138.875V13.888H140.875ZM149.067 13.888L150.936 13.1751L150.445 11.888H149.067V13.888ZM156.331 32.928L154.463 33.6409L158.331 32.928H156.331ZM156.331 17.024H158.331V15.2509L156.571 15.0384L156.331 17.024ZM154.475 16.8H152.475V18.5731L154.236 18.7856L154.475 16.8ZM154.475 13.888V11.888H152.475V13.888H154.475ZM161.355 13.888L163.33 13.5695L163.059 11.888H161.355V13.888ZM161.835 16.864L162.188 18.8327L164.123 18.4861L163.81 16.5455L161.835 16.864ZM159.691 17.248L159.339 15.2793L157.691 15.5744V17.248H159.691ZM159.691 36V38H161.691V36H159.691ZM153.227 36L151.361 36.7193L151.855 38H153.227V36ZM146.283 17.984L148.149 17.2647L144.283 17.984H146.283ZM146.283 32.672H144.283V34.1407L145.685 34.5803L146.283 32.672ZM147.915 33.184L149.915 33.2067L149.932 31.7206L148.514 31.2757L147.915 33.184ZM147.883 36V38H149.861L149.883 36.0227L147.883 36ZM141.227 36L143.194 35.6383L142.682 32.8543L140.715 33.216L138.748 33.5777L139.26 36.3617L141.227 36ZM140.715 33.216L141.086 35.1814L143.294 34.7654L142.923 32.8L142.553 30.8346L140.345 31.2506L140.715 33.216ZM142.923 32.8H144.923V17.088H142.923H140.923V32.8H142.923ZM142.923 17.088L143.141 15.0999L141.093 14.8759L140.875 16.864L140.658 18.8521L142.706 19.0761L142.923 17.088ZM140.875 16.864H142.875V13.888H140.875H138.875V16.864H140.875ZM140.875 13.888V15.888H149.067V13.888V11.888H140.875V13.888ZM149.067 13.888L147.199 14.6009L154.463 33.6409L156.331 32.928L158.2 32.2151L150.936 13.1751L149.067 13.888ZM156.331 32.928H158.331V17.024H156.331H154.331V32.928H156.331ZM156.331 17.024L156.571 15.0384L154.715 14.8144L154.475 16.8L154.236 18.7856L156.092 19.0096L156.331 17.024ZM154.475 16.8H156.475V13.888H154.475H152.475V16.8H154.475ZM154.475 13.888V15.888H161.355V13.888V11.888H154.475V13.888ZM161.355 13.888L159.381 14.2065L159.861 17.1825L161.835 16.864L163.81 16.5455L163.33 13.5695L161.355 13.888ZM161.835 16.864L161.483 14.8953L159.339 15.2793L159.691 17.248L160.044 19.2167L162.188 18.8327L161.835 16.864ZM159.691 17.248H157.691V36H159.691H161.691V17.248H159.691ZM159.691 36V34H153.227V36V38H159.691V36ZM153.227 36L155.093 35.2807L148.149 17.2647L146.283 17.984L144.417 18.7033L151.361 36.7193L153.227 36ZM146.283 17.984H144.283V32.672H146.283H148.283V17.984H146.283ZM146.283 32.672L145.685 34.5803L147.317 35.0923L147.915 33.184L148.514 31.2757L146.882 30.7637L146.283 32.672ZM147.915 33.184L145.915 33.1613L145.883 35.9773L147.883 36L149.883 36.0227L149.915 33.2067L147.915 33.184ZM147.883 36V34H141.227V36V38H147.883V36ZM164.477 36L162.502 36.3142L162.77 38H164.477V36ZM164.029 33.184L163.637 31.2228L161.752 31.5998L162.054 33.4982L164.029 33.184ZM166.109 32.768L166.501 34.7292L168.109 34.4076V32.768H166.109ZM166.109 16.96H168.109V15.1699L166.33 14.9722L166.109 16.96ZM164.093 16.736H162.093V18.5261L163.872 18.7238L164.093 16.736ZM164.093 13.888V11.888H162.093V13.888H164.093ZM178.685 13.888L180.677 13.7025L180.508 11.888H178.685V13.888ZM179.293 20.416V22.416H181.488L181.285 20.2305L179.293 20.416ZM176.797 20.416L174.949 21.1813L175.461 22.416H176.797V20.416ZM175.485 17.248L177.333 16.4827L176.822 15.248H175.485V17.248ZM170.301 17.248V15.248H168.301V17.248H170.301ZM170.301 22.944H168.301V24.944H170.301V22.944ZM175.165 22.944H177.165V20.944H175.165V22.944ZM175.165 26.304V28.304H177.165V26.304H175.165ZM170.301 26.304V24.304H168.301V26.304H170.301ZM170.301 32.64H168.301V34.64H170.301V32.64ZM175.709 32.64V34.64H177.097L177.583 33.3402L175.709 32.64ZM176.893 29.472V27.472H175.506L175.02 28.7718L176.893 29.472ZM179.421 29.472L181.411 29.6768L181.638 27.472H179.421V29.472ZM178.749 36V38H180.554L180.739 36.2048L178.749 36ZM164.477 36L166.452 35.6858L166.004 32.8698L164.029 33.184L162.054 33.4982L162.502 36.3142L164.477 36ZM164.029 33.184L164.421 35.1452L166.501 34.7292L166.109 32.768L165.717 30.8068L163.637 31.2228L164.029 33.184ZM166.109 32.768H168.109V16.96H166.109H164.109V32.768H166.109ZM166.109 16.96L166.33 14.9722L164.314 14.7482L164.093 16.736L163.872 18.7238L165.888 18.9478L166.109 16.96ZM164.093 16.736H166.093V13.888H164.093H162.093V16.736H164.093ZM164.093 13.888V15.888H178.685V13.888V11.888H164.093V13.888ZM178.685 13.888L176.694 14.0735L177.302 20.6015L179.293 20.416L181.285 20.2305L180.677 13.7025L178.685 13.888ZM179.293 20.416V18.416H176.797V20.416V22.416H179.293V20.416ZM176.797 20.416L178.645 19.6507L177.333 16.4827L175.485 17.248L173.637 18.0133L174.949 21.1813L176.797 20.416ZM175.485 17.248V15.248H170.301V17.248V19.248H175.485V17.248ZM170.301 17.248H168.301V22.944H170.301H172.301V17.248H170.301ZM170.301 22.944V24.944H175.165V22.944V20.944H170.301V22.944ZM175.165 22.944H173.165V26.304H175.165H177.165V22.944H175.165ZM175.165 26.304V24.304H170.301V26.304V28.304H175.165V26.304ZM170.301 26.304H168.301V32.64H170.301H172.301V26.304H170.301ZM170.301 32.64V34.64H175.709V32.64V30.64H170.301V32.64ZM175.709 32.64L177.583 33.3402L178.767 30.1722L176.893 29.472L175.02 28.7718L173.836 31.9398L175.709 32.64ZM176.893 29.472V31.472H179.421V29.472V27.472H176.893V29.472ZM179.421 29.472L177.432 29.2672L176.76 35.7952L178.749 36L180.739 36.2048L181.411 29.6768L179.421 29.472ZM178.749 36V34H164.477V36V38H178.749V36Z" fill="black" fill-opacity="0.09" mask="url(#path-1-outside-1_37_5)"/>
</svg>
