<svg xmlns="http://www.w3.org/2000/svg" width="129" height="20" viewBox="0 0 129 20" fill="#000000">
  <path d="M9.69 0.4L5.54 16.67H2.12L6.28 0.4H9.69ZM20.7 16.67L16.22 0.4H12.65L8.17 16.67H11.49L13.1 10.14H15.76L17.39 16.67H20.7ZM14.43 3.94L15.47 8.09H13.39L14.43 3.94ZM40.35 3.89V16.67H37.28V3.89H33.92V0.4H43.71V3.89H40.35ZM64.92 0.4V16.67H61.85V10.14H57.22V16.67H54.15V0.4H57.22V6.66H61.85V0.4H64.92ZM75.87 0.4H72.35V16.67H75.87V0.4ZM88.81 16.67L84.33 0.4H80.75L76.28 16.67H79.59L81.21 10.14H83.86L85.49 16.67H88.81ZM82.54 3.94L83.58 8.09H81.49L82.54 3.94ZM28.86 0.25C26.3 0.25 23.73 1.34 21.82 3.24C21.35 3.71 20.94 4.22 20.59 4.77V5.12H23.73C24.28 4.22 25.07 3.47 26.01 3.01C26.95 2.54 28 2.32 29.04 2.37C32.04 2.37 34.53 4.83 34.53 8.09C34.53 11.35 31.94 13.75 28.89 13.75C28.06 13.8 27.23 13.64 26.48 13.3C25.73 12.96 25.07 12.45 24.56 11.81H21.39C21.98 13.35 23 14.69 24.36 15.65C25.73 16.62 27.35 17.16 29.04 17.21C33.74 17.21 37.55 13.14 37.55 8.29C37.55 3.47 33.54 0.25 28.86 0.25ZM99.51 0.4C94.81 0.4 91 4.42 91 8.54C91 12.65 94.81 16.67 99.51 16.67C104.22 16.67 108.03 12.65 108.03 8.54C108.03 4.42 104.22 0.4 99.51 0.4ZM99.51 13.19C96.68 13.19 94.02 11.04 94.02 8.54C94.02 6.04 96.68 3.89 99.51 3.89C102.35 3.89 105.01 6.04 105.01 8.54C105.01 11.04 102.35 13.19 99.51 13.19ZM117.62 16.67V10.14C119.15 10.14 120.63 9.53 121.74 8.44C122.85 7.34 123.49 5.89 123.49 4.37C123.49 3.63 123.34 2.88 123.04 2.17C122.75 1.46 122.3 0.85 121.77 0.35H119.91V3.89H114.55V0.4H108.8V16.67H111.89V3.89H114.55V16.67H117.62Z" />
</svg>
